<svg width="48" height="48" viewBox="0 0 48 48" fill="none" xmlns="http://www.w3.org/2000/svg">
<path d="M29.8039 3.00009C32.6805 2.9903 35.4969 3.82476 37.9039 5.40009L28.3039 15.0001C27.9842 15.2729 27.7223 15.6069 27.5336 15.9824C27.345 16.358 27.2334 16.7675 27.2054 17.1869C27.1775 17.6062 27.2337 18.0269 27.3708 18.4242C27.508 18.8215 27.7232 19.1873 28.0039 19.5001C28.3167 19.7808 28.6825 19.996 29.0798 20.1331C29.4771 20.2703 29.8978 20.3265 30.3171 20.2986C30.7364 20.2706 31.146 20.159 31.5215 19.9704C31.8971 19.7817 32.2311 19.5198 32.5039 19.2001L42.4039 9.60009C44.1155 12.1188 45.0062 15.1053 44.9539 18.1501C44.9381 22.1633 43.3368 26.0075 40.4991 28.8453C37.6613 31.6831 33.817 33.2843 29.8039 33.3001C28.4905 33.3073 27.1811 33.1562 25.9039 32.8501L15.8539 42.9001C14.4416 44.3124 12.5261 45.1058 10.5289 45.1058C8.53161 45.1058 6.61615 44.3124 5.20387 42.9001C3.79159 41.4878 2.99818 39.5724 2.99818 37.5751C2.99818 35.5778 3.79159 33.6624 5.20387 32.2501L15.2539 22.2001C14.9478 20.9229 14.7967 19.6134 14.8039 18.3001C14.764 16.3052 15.1225 14.3223 15.8584 12.4677C16.5943 10.613 17.6929 8.92382 19.0898 7.49901C20.4866 6.0742 22.1538 4.94241 23.9935 4.1699C25.8332 3.39739 27.8085 2.99969 29.8039 3.00009V3.00009ZM17.8039 18.1501C17.8061 19.2159 17.9575 20.2762 18.2539 21.3001L18.7039 22.9501L17.5039 24.1501L7.45387 34.2001C7.02587 34.6053 6.68531 35.0938 6.45315 35.6355C6.22098 36.1772 6.10212 36.7607 6.10387 37.3501C6.08699 37.9416 6.19898 38.5298 6.4321 39.0737C6.66521 39.6176 7.01387 40.1044 7.45387 40.5001C7.86015 40.9267 8.34885 41.2663 8.89032 41.4984C9.4318 41.7304 10.0148 41.8501 10.6039 41.8501C11.193 41.8501 11.7759 41.7304 12.3174 41.4984C12.8589 41.2663 13.3476 40.9267 13.7539 40.5001L23.8039 30.4501L25.0039 29.2501L26.6539 29.7001C27.6777 29.9964 28.738 30.1479 29.8039 30.1501C32.9913 30.1412 36.0529 28.9058 38.3539 26.7001C39.5175 25.6052 40.439 24.2788 41.059 22.8062C41.679 21.3336 41.9839 19.7476 41.9539 18.1501C41.9518 17.0349 41.8005 15.9251 41.5039 14.8501L34.9039 21.4501C34.3462 22.057 33.6733 22.5468 32.9243 22.8909C32.1754 23.2351 31.3655 23.4267 30.5417 23.4546C29.718 23.4825 28.8969 23.3462 28.1264 23.0535C27.3559 22.7609 26.6514 22.3178 26.0539 21.7501C25.4862 21.1526 25.0431 20.448 24.7504 19.6775C24.4578 18.907 24.3214 18.086 24.3494 17.2622C24.3773 16.4385 24.5689 15.6285 24.9131 14.8796C25.2572 14.1307 25.747 13.4578 26.3539 12.9001L32.9539 6.30009C31.9838 5.99327 30.9713 5.8414 29.9539 5.85009C26.7665 5.85894 23.7048 7.09435 21.4039 9.30009C19.1008 11.6711 17.8099 14.8447 17.8039 18.1501V18.1501Z" fill="#8C8C8C"/>
</svg>
