<svg width="48" height="48" viewBox="0 0 48 48" fill="none" xmlns="http://www.w3.org/2000/svg">
<g clip-path="url(#clip0_820_1285)">
<path d="M31.2398 22.4401C30.9905 22.1872 30.6509 22.0438 30.2959 22.0413C29.9408 22.0388 29.5993 22.1774 29.3464 22.4267C29.0936 22.6761 28.9502 23.0156 28.9477 23.3707C28.9452 23.7257 29.0838 24.0672 29.3331 24.3201L34.2931 29.3334H10.4398C10.0862 29.3334 9.74702 29.4739 9.49697 29.7239C9.24692 29.974 9.10645 30.3131 9.10645 30.6667C9.10645 31.0204 9.24692 31.3595 9.49697 31.6096C9.74702 31.8596 10.0862 32.0001 10.4398 32.0001H34.2931L29.3331 36.9334C29.2097 37.0577 29.1119 37.2051 29.0455 37.3672C28.979 37.5293 28.9451 37.7029 28.9457 37.8781C28.9463 38.0533 28.9814 38.2267 29.0491 38.3883C29.1167 38.5499 29.2155 38.6966 29.3398 38.8201C29.4641 38.9435 29.6115 39.0413 29.7736 39.1077C29.9357 39.1742 30.1093 39.2081 30.2845 39.2075C30.4597 39.2069 30.633 39.1718 30.7947 39.1041C30.9563 39.0365 31.103 38.9377 31.2264 38.8134L39.3731 30.6667L31.2398 22.4401Z" fill="#8C8C8C"/>
<path d="M17.6534 24.5999C17.9182 24.6015 18.1775 24.5241 18.3982 24.3777C18.6189 24.2313 18.791 24.0225 18.8926 23.7779C18.9941 23.5333 19.0205 23.264 18.9684 23.0044C18.9163 22.7447 18.7881 22.5064 18.6001 22.3199L13.6534 17.3333H37.4934C37.847 17.3333 38.1862 17.1928 38.4362 16.9427C38.6863 16.6927 38.8267 16.3536 38.8267 15.9999C38.8267 15.6463 38.6863 15.3072 38.4362 15.0571C38.1862 14.8071 37.847 14.6666 37.4934 14.6666H13.6534L18.6001 9.69327C18.7235 9.56895 18.8212 9.42154 18.8877 9.25945C18.9542 9.09735 18.9881 8.92375 18.9875 8.74856C18.9868 8.57336 18.9517 8.40001 18.8841 8.23839C18.8165 8.07677 18.7177 7.93005 18.5934 7.80661C18.4691 7.68316 18.3217 7.58542 18.1596 7.51894C17.9975 7.45247 17.8239 7.41858 17.6487 7.4192C17.2949 7.42045 16.956 7.5622 16.7067 7.81327L8.56006 15.9999L16.7067 24.1866C16.8291 24.315 16.9759 24.4177 17.1384 24.4887C17.301 24.5596 17.476 24.5975 17.6534 24.5999Z" fill="#8C8C8C"/>
</g>
<defs>
<clipPath id="clip0_820_1285">
<rect width="48" height="48" fill="white"/>
</clipPath>
</defs>
</svg>
