<svg width="50" height="50" viewBox="0 0 50 50" fill="none" xmlns="http://www.w3.org/2000/svg">
<path d="M39.0625 20.3125C39.0625 16.5829 37.5809 13.006 34.9437 10.3688C32.3065 7.73158 28.7296 6.25 25 6.25C21.2704 6.25 17.6935 7.73158 15.0563 10.3688C12.4191 13.006 10.9375 16.5829 10.9375 20.3125C10.9375 26.0812 15.5531 33.6 25 42.6062C34.4469 33.6 39.0625 26.0812 39.0625 20.3125ZM25 46.875C13.5406 36.4594 7.8125 27.6031 7.8125 20.3125C7.8125 15.7541 9.62332 11.3824 12.8466 8.1591C16.0699 4.93582 20.4416 3.125 25 3.125C29.5584 3.125 33.9301 4.93582 37.1534 8.1591C40.3767 11.3824 42.1875 15.7541 42.1875 20.3125C42.1875 27.6031 36.4594 36.4594 25 46.875Z" fill="#8C8C8C"/>
<path d="M25 25C26.2432 25 27.4355 24.5061 28.3146 23.6271C29.1936 22.748 29.6875 21.5557 29.6875 20.3125C29.6875 19.0693 29.1936 17.877 28.3146 16.9979C27.4355 16.1189 26.2432 15.625 25 15.625C23.7568 15.625 22.5645 16.1189 21.6854 16.9979C20.8064 17.877 20.3125 19.0693 20.3125 20.3125C20.3125 21.5557 20.8064 22.748 21.6854 23.6271C22.5645 24.5061 23.7568 25 25 25ZM25 28.125C22.928 28.125 20.9409 27.3019 19.4757 25.8368C18.0106 24.3716 17.1875 22.3845 17.1875 20.3125C17.1875 18.2405 18.0106 16.2534 19.4757 14.7882C20.9409 13.3231 22.928 12.5 25 12.5C27.072 12.5 29.0591 13.3231 30.5243 14.7882C31.9894 16.2534 32.8125 18.2405 32.8125 20.3125C32.8125 22.3845 31.9894 24.3716 30.5243 25.8368C29.0591 27.3019 27.072 28.125 25 28.125Z" fill="#8C8C8C"/>
</svg>
