<svg width="48" height="48" viewBox="0 0 48 48" fill="none" xmlns="http://www.w3.org/2000/svg">
<path d="M45 27C45.003 25.498 44.6301 24.0191 43.9152 22.6981C43.2003 21.3771 42.1661 20.2561 40.907 19.4372C39.6478 18.6182 38.2037 18.1275 36.7064 18.0096C35.209 17.8917 33.7059 18.1504 32.3341 18.7623C30.9623 19.3741 29.7655 20.3195 28.8527 21.5123C27.9399 22.7051 27.3401 24.1075 27.1081 25.5915C26.876 27.0755 27.0191 28.5939 27.5242 30.0085C28.0293 31.423 28.8805 32.6886 30 33.69V45L36 42.1605L42 45V33.69C42.943 32.8491 43.6977 31.8184 44.2147 30.6655C44.7317 29.5126 44.9993 28.2635 45 27ZM39 40.26L36 38.8395L33 40.26V35.475C34.9387 36.1752 37.0613 36.1752 39 35.475V40.26ZM36 33C34.8133 33 33.6533 32.6481 32.6666 31.9888C31.6799 31.3295 30.9108 30.3925 30.4567 29.2961C30.0026 28.1997 29.8838 26.9933 30.1153 25.8295C30.3468 24.6656 30.9182 23.5965 31.7574 22.7574C32.5965 21.9182 33.6656 21.3468 34.8295 21.1153C35.9933 20.8838 37.1997 21.0026 38.2961 21.4567C39.3925 21.9108 40.3295 22.6799 40.9888 23.6666C41.6481 24.6533 42 25.8133 42 27C41.998 28.5907 41.3652 30.1157 40.2404 31.2404C39.1157 32.3652 37.5907 32.998 36 33ZM13.5 21H24V24H13.5V21ZM13.5 12H28.5V15H13.5V12Z" fill="#8C8C8C"/>
<path d="M9 45C8.20459 44.9992 7.44199 44.6829 6.87956 44.1204C6.31712 43.558 6.00079 42.7954 6 42V6C6.00079 5.20459 6.31712 4.44199 6.87956 3.87956C7.44199 3.31712 8.20459 3.00079 9 3H33C33.7954 3.00079 34.558 3.31712 35.1204 3.87956C35.6829 4.44199 35.9992 5.20459 36 6V12H33V6H9V42H24V45H9Z" fill="#8C8C8C"/>
</svg>
