<svg xmlns="http://www.w3.org/2000/svg" width="23.964" height="24.074" viewBox="0 0 23.964 24.074">
  <path id="Icon_material-3d-rotation" data-name="Icon material-3d-rotation" d="M7.568,21.546A10.519,10.519,0,0,1,1.58,13.04H.075A12.031,12.031,0,0,0,12.062,24.074l.662-.03L8.9,20.222Zm.893-6.54a1.675,1.675,0,0,1-.522-.08,1.073,1.073,0,0,1-.4-.241.994.994,0,0,1-.261-.371,1.2,1.2,0,0,1-.09-.471h-1.3a2.053,2.053,0,0,0,.211.953,2.218,2.218,0,0,0,.562.692,2.534,2.534,0,0,0,.823.411,3.026,3.026,0,0,0,.963.15,3.383,3.383,0,0,0,1.033-.15,2.446,2.446,0,0,0,.833-.441,1.984,1.984,0,0,0,.552-.722,2.343,2.343,0,0,0,.2-.973,2.1,2.1,0,0,0-.07-.562,1.675,1.675,0,0,0-.231-.512,1.8,1.8,0,0,0-.4-.431,2.063,2.063,0,0,0-.612-.311,2.1,2.1,0,0,0,.522-.331,2.073,2.073,0,0,0,.371-.421,1.768,1.768,0,0,0,.221-.461,1.6,1.6,0,0,0,.07-.481,2.425,2.425,0,0,0-.181-.963,1.786,1.786,0,0,0-.512-.692,2.064,2.064,0,0,0-.772-.431,3.656,3.656,0,0,0-1.023-.14,2.963,2.963,0,0,0-1,.16,2.552,2.552,0,0,0-.792.451,2.255,2.255,0,0,0-.512.672,2,2,0,0,0-.181.853h1.3a1.066,1.066,0,0,1,.09-.451A.943.943,0,0,1,7.6,9.369a1.189,1.189,0,0,1,.381-.221,1.468,1.468,0,0,1,.481-.08,1.15,1.15,0,0,1,.893.311,1.212,1.212,0,0,1,.291.863,1.53,1.53,0,0,1-.08.492.872.872,0,0,1-.251.371,1.272,1.272,0,0,1-.411.241,1.688,1.688,0,0,1-.582.09H7.548v1.033H8.32a2.253,2.253,0,0,1,.6.07,1.2,1.2,0,0,1,.451.231,1.182,1.182,0,0,1,.291.4,1.422,1.422,0,0,1,.1.572,1.2,1.2,0,0,1-.351.933,1.285,1.285,0,0,1-.953.331Zm8.576-5.938A3.341,3.341,0,0,0,15.894,8.3a3.773,3.773,0,0,0-1.464-.271H12.062v8.025h2.307a4.071,4.071,0,0,0,1.515-.271,3.305,3.305,0,0,0,1.164-.762,3.385,3.385,0,0,0,.742-1.194,4.589,4.589,0,0,0,.261-1.575v-.4a4.589,4.589,0,0,0-.261-1.575,3.505,3.505,0,0,0-.752-1.2Zm-.391,3.17a4.382,4.382,0,0,1-.14,1.133,2.439,2.439,0,0,1-.431.853,1.875,1.875,0,0,1-.712.532,2.578,2.578,0,0,1-.993.181h-.913V9.148h.973a1.99,1.99,0,0,1,1.645.692,3.055,3.055,0,0,1,.572,2v.4ZM12.062,0,11.4.03l3.822,3.822,1.334-1.334a10.5,10.5,0,0,1,5.978,8.506h1.5A12.013,12.013,0,0,0,12.062,0Z" transform="translate(-0.075)"/>
</svg>
