<svg xmlns="http://www.w3.org/2000/svg" width="70" height="70" viewBox="0 0 50.725 59.18">
    <g id="noun-content-3960188" transform="translate(-140.003 -35)">
        <path id="Trazado_9013" data-name="Trazado 9013" d="M174.877,94.18a1.057,1.057,0,0,0,1.057-1.057v-7.4h13.738a1.057,1.057,0,0,0,1.057-1.057V46.561a1.051,1.051,0,0,0-.053-.275v-.1h0a1.054,1.054,0,0,0-.2-.3L179.907,35.327a1.054,1.054,0,0,0-.3-.2h-.095a1.049,1.049,0,0,0-.349-.127H153.742a1.057,1.057,0,0,0-1.057,1.057V66.7H141.06A1.057,1.057,0,0,0,140,67.76V93.123a1.057,1.057,0,0,0,1.057,1.057ZM180.161,38.6l6.964,6.964h-6.964ZM154.8,37.114h23.249v9.511a1.057,1.057,0,0,0,1.057,1.057h9.511V83.612H175.934V71.988h6.341a1.057,1.057,0,1,0,0-2.114h-6.341V67.761a1.057,1.057,0,0,0-1.057-1.057H154.8Zm-12.681,31.7h31.7V84.585l-8.856-7.08a1.057,1.057,0,0,0-1.321,0l-9.828,7.863-5.675-5.675a1.056,1.056,0,0,0-1.49,0l-4.534,4.544Zm0,18.4,5.284-5.284,5.591,5.591a1.057,1.057,0,0,0,1.405.074l9.912-7.915,9.511,7.609v4.777h-31.7Z" fill="#f2f9fa"/>
        <path id="Trazado_9014" data-name="Trazado 9014" d="M307.307,168.364h21.136a1.057,1.057,0,1,0,0-2.114H307.307a1.057,1.057,0,1,0,0,2.114Z" transform="translate(-146.168 -115.398)" fill="#f2f9fa"/>
        <path id="Trazado_9015" data-name="Trazado 9015" d="M307.307,220.864h21.136a1.057,1.057,0,1,0,0-2.114H307.307a1.057,1.057,0,1,0,0,2.114Z" transform="translate(-146.168 -161.558)" fill="#f2f9fa"/>
        <path id="Trazado_9016" data-name="Trazado 9016" d="M329.5,272.307a1.057,1.057,0,0,0-1.057-1.057H307.307a1.057,1.057,0,1,0,0,2.114h21.136a1.057,1.057,0,0,0,1.057-1.057Z" transform="translate(-146.168 -207.717)" fill="#f2f9fa"/>
        <path id="Trazado_9017" data-name="Trazado 9017" d="M222.977,340.954a4.227,4.227,0,1,0-2.989-1.238A4.229,4.229,0,0,0,222.977,340.954Zm0-6.341a2.113,2.113,0,1,1-1.495.619A2.114,2.114,0,0,1,222.977,334.614Z" transform="translate(-69.236 -261.569)" fill="#f2f9fa"/>
    </g>
</svg>