<svg xmlns="http://www.w3.org/2000/svg" width="70" height="70" viewBox="0 0 36.753 69.373">
    <g id="noun-vip-1964326" transform="translate(-218.749 -12.031)">
        <path id="Trazado_9007" data-name="Trazado 9007" d="M254.689,90.086l-9.8-3.5-.823,2.307,8.987,3.211v50.591H221.2V92.1l10.213-3.647-.823-2.307-11.026,3.937h0a1.226,1.226,0,0,0-.813,1.153v52.68a1.225,1.225,0,0,0,1.225,1.225h34.3a1.225,1.225,0,0,0,1.225-1.225V91.239a1.225,1.225,0,0,0-.813-1.153Z" transform="translate(0 -63.741)" fill="#f2f9fa"/>
        <path id="Trazado_9008" data-name="Trazado 9008" d="M341.25,122.5h2.45v2.45h-2.45Z" transform="translate(-105.35 -95.002)" fill="#f2f9fa"/>
        <path id="Trazado_9011" data-name="Trazado 9011" d="M268.479,20.147h2.45V32.4a1.225,1.225,0,0,0,1.225,1.225H279.5A1.225,1.225,0,0,0,280.73,32.4V20.147h2.45a1.226,1.226,0,0,0,.957-.459l4.9-6.126-1.914-1.531L282.592,17.7H280.73V14.022A1.225,1.225,0,0,0,279.5,12.8h-7.351a1.225,1.225,0,0,0-1.225,1.225V17.7h-1.757l-3.319-5.532-2.1,1.262,3.675,6.126h0a1.225,1.225,0,0,0,1.05.594Zm4.9,2.45h4.9v1.225h-4.9Zm0,8.576v-4.9h4.9v4.9Zm4.9-15.926v4.9h-4.9v-4.9Z" transform="translate(-38.704)" fill="#f2f9fa"/>
        <path id="Trazado_9012" data-name="Trazado 9012" d="M271.928,192.388a1.238,1.238,0,0,0-1.1-.666,1.225,1.225,0,0,0-1.088.7l-3.214,6.769-7.4,1.19h0a1.225,1.225,0,0,0-.647,2.1l5.443,5.145-1.166,7.4a1.225,1.225,0,0,0,1.8,1.264l6.578-3.587,6.694,3.383a1.225,1.225,0,0,0,1.758-1.317l-1.378-7.364,5.284-5.311h0a1.225,1.225,0,0,0-.711-2.083l-7.435-.954Zm4.081,13.75h0a1.224,1.224,0,0,0-.336,1.088l1.04,5.558-5.043-2.554h0a1.226,1.226,0,0,0-1.14.016l-4.963,2.707.871-5.585h0a1.225,1.225,0,0,0-.372-1.081l-4.1-3.884,5.581-.9a1.223,1.223,0,0,0,.912-.684l2.424-5.106,2.579,5.03a1.225,1.225,0,0,0,.933.657l5.606.726Z" transform="translate(-33.841 -154.532)" fill="#f2f9fa"/>
    </g>
</svg>