<svg xmlns="http://www.w3.org/2000/svg" width="70" height="70" viewBox="0 0 42.639 65.972">
    <path id="Trazado_9000" data-name="Trazado 9000" d="M210.932,79.125A21.343,21.343,0,1,1,226,72.874a21.319,21.319,0,0,1-15.068,6.251Zm0-38.382a17.074,17.074,0,1,0,12.062,5,17.062,17.062,0,0,0-12.062-5ZM208.06,54.049l-6.432.977,4.652,4.769-1.094,6.735,5.746-3.175,5.746,3.175-1.094-6.735,4.652-4.769-6.432-.989-2.873-6.118Zm8.688,27.461v11.9l-5.815-4.152-5.815,4.152V81.51a24.192,24.192,0,0,1-4.652-1.652v22.6l10.468-7.479,10.468,7.479V79.847a24.188,24.188,0,0,1-4.652,1.663Z" transform="translate(-189.613 -36.486)" fill="#f2f9fa"/>
</svg>