<svg xmlns="http://www.w3.org/2000/svg" width="70" height="70" viewBox="0 0 57.447 67.338">
    <g id="noun-notification-1233196" transform="translate(-129.023 -20.945)">
        <path id="Trazado_9003" data-name="Trazado 9003" d="M157.751,20.945a8.83,8.83,0,0,0-8.816,8.823v1.893A22.145,22.145,0,0,0,135.663,51.9V62.091l-6.079,6.77h0a2.186,2.186,0,0,0-.561,1.456v5.941a2.184,2.184,0,0,0,2.184,2.184h15.361a11.27,11.27,0,0,0,22.357,0h15.361a2.184,2.184,0,0,0,2.184-2.184v-5.9a2.186,2.186,0,0,0-.561-1.456l-6.079-6.77V51.885a22.132,22.132,0,0,0-13.264-20.231V29.768a8.83,8.83,0,0,0-8.816-8.823Zm0,62.98h0a6.923,6.923,0,0,1-6.756-5.452h13.512a6.923,6.923,0,0,1-6.756,5.46ZM175.47,51.893v8.881H159.352v4.368h17.327l5.424,6.042V74.1H133.391V71.185l6.079-6.77h0a2.181,2.181,0,0,0,.561-1.456V51.9a17.77,17.77,0,0,1,11.816-16.7,2.185,2.185,0,0,0,1.456-2.061v-3.37a4.452,4.452,0,0,1,8.9,0v3.371h0a2.183,2.183,0,0,0,1.456,2.061A17.756,17.756,0,0,1,175.47,51.885Z" transform="translate(0 0)" fill="#f2f9fa"/>
    </g>
</svg>