<svg xmlns="http://www.w3.org/2000/svg" width="70" height="70" viewBox="0 0 71.402 71.423">
    <g id="noun-sale-3406834" transform="translate(-83.998 -13.913)">
        <path id="Trazado_9001" data-name="Trazado 9001" d="M154.733,52.262,118.276,15.729a2.538,2.538,0,0,0-1.428-.676l-17.89-1.128a2.116,2.116,0,0,0-1.729.676L84.674,27.154A2.508,2.508,0,0,0,84,28.883l1.127,17.89A2.135,2.135,0,0,0,85.8,48.2l36.457,36.457a2.292,2.292,0,0,0,1.579.676,2.165,2.165,0,0,0,1.579-.676l29.241-29.241a2.123,2.123,0,0,0,.075-3.157Zm-30.82,27.663L89.636,45.571,88.584,29.56l11.05-11.05,16.011,1.052L149.922,53.84Z" transform="translate(0 0)" fill="#f2f9fa"/>
        <path id="Trazado_9002" data-name="Trazado 9002" d="M181.641,103.04a8.043,8.043,0,1,0,8.043,8.043A8.053,8.053,0,0,0,181.641,103.04Zm0,11.651a3.533,3.533,0,1,1,3.533-3.533A3.529,3.529,0,0,1,181.641,114.691Z" transform="translate(-77.573 -77.163)" fill="#f2f9fa"/>
    </g>
</svg>