<svg xmlns="http://www.w3.org/2000/svg" width="71.402" height="71.423" viewBox="0 0 71.402 71.423">
  <g id="Grupo_3757" data-name="Grupo 3757" transform="translate(-793.601 -1462.706)">
    <g id="noun-sale-3406834" transform="translate(709.604 1448.793)">
      <path id="Trazado_9001" data-name="Trazado 9001" d="M154.733,52.262,118.276,15.729a2.538,2.538,0,0,0-1.428-.676l-17.89-1.128a2.116,2.116,0,0,0-1.729.676L84.674,27.154A2.508,2.508,0,0,0,84,28.883l1.127,17.89A2.135,2.135,0,0,0,85.8,48.2l36.457,36.457a2.292,2.292,0,0,0,1.579.676,2.165,2.165,0,0,0,1.579-.676l29.241-29.241a2.123,2.123,0,0,0,.075-3.157Zm-30.82,27.663L89.636,45.571,88.584,29.56l11.05-11.05,16.011,1.052L149.922,53.84Z" transform="translate(0 0)" fill="#f2f9fa"/>
      <path id="Trazado_9002" data-name="Trazado 9002" d="M181.641,103.04a8.043,8.043,0,1,0,8.043,8.043A8.053,8.053,0,0,0,181.641,103.04Zm0,11.651a3.533,3.533,0,1,1,3.533-3.533A3.529,3.529,0,0,1,181.641,114.691Z" transform="translate(-77.573 -77.163)" fill="#f2f9fa"/>
    </g>
    <path id="Trazado_9069" data-name="Trazado 9069" d="M30.08,21.7a4.524,4.524,0,0,1-1.207,3.293,4.333,4.333,0,0,1-3.258,1.242,4.076,4.076,0,0,1-3.041-1.16,4.17,4.17,0,0,1-1.143-3.059,4.486,4.486,0,0,1,1.219-3.311A4.376,4.376,0,0,1,25.9,17.48,3.866,3.866,0,0,1,30.08,21.7Zm-3.07.152a2.334,2.334,0,0,0-.316-1.307.99.99,0,0,0-.867-.475,1.057,1.057,0,0,0-.937.5,2.435,2.435,0,0,0-.328,1.354,2.3,2.3,0,0,0,.3,1.266,1,1,0,0,0,.9.457,1.061,1.061,0,0,0,.932-.469A2.32,2.32,0,0,0,27.01,21.852ZM16.967,26H13.275L24.08,9.2h3.691Zm2.578-12.8a4.5,4.5,0,0,1-1.213,3.311A4.34,4.34,0,0,1,15.1,17.738a4.076,4.076,0,0,1-3.041-1.16A4.17,4.17,0,0,1,10.92,13.52a4.6,4.6,0,0,1,1.189-3.311,4.279,4.279,0,0,1,3.252-1.248A4.1,4.1,0,0,1,18.426,10.1,4.234,4.234,0,0,1,19.545,13.2Zm-3.082.129a2.39,2.39,0,0,0-.3-1.283.949.949,0,0,0-.85-.475,1.057,1.057,0,0,0-.937.5,2.435,2.435,0,0,0-.328,1.354,2.3,2.3,0,0,0,.3,1.266,1,1,0,0,0,.9.457,1.024,1.024,0,0,0,.9-.469A2.4,2.4,0,0,0,16.463,13.332Z" transform="translate(813 1485.05)" fill="#f2f9fa"/>
  </g>
</svg>