<svg id="Grupo_3706" data-name="Grupo 3706" xmlns="http://www.w3.org/2000/svg" width="41.344" height="41.494" viewBox="0 0 41.344 41.494">
  <path id="tool-svgrepo-com" d="M151.128,119.848a.476.476,0,0,0-.1-.124.635.635,0,0,0-.9,0l-8.548,8.549-3.369-3.369,8.553-8.554a.776.776,0,0,0,.1-.124.632.632,0,0,0-.223-.868A12.723,12.723,0,0,0,127.9,129.6L113.365,144.14a.385.385,0,0,0,.015.546l8.419,8.42a.385.385,0,0,0,.546.015l14.531-14.533a12.722,12.722,0,0,0,14.253-18.74Zm-4.495,12.915a9.141,9.141,0,0,1-10.646,1.667l-.437.437,0,0-13.593,13.6-3.929-3.93,11.415-11.417a0,0,0,0,0,0,0l2.619-2.62a9.146,9.146,0,0,1,8.811-13.3l-6.593,6.589a1.59,1.59,0,0,0,0,2.248l6.176,6.177a1.59,1.59,0,0,0,2.247,0l6.588-6.589A9.152,9.152,0,0,1,146.634,132.763Z" transform="translate(-111.541 -113.601)" fill="#373933"/>
  <rect id="Rectángulo_949" data-name="Rectángulo 949" width="14.308" height="14.529" transform="translate(0 31.22) rotate(-45)" fill="red" style="mix-blend-mode: lighten;isolation: isolate"/>
</svg>
