<svg id="home-line-house-property-svgrepo-com" xmlns="http://www.w3.org/2000/svg" width="55.984" height="50" viewBox="0 0 55.984 50">
    <path id="Trazado_8801" data-name="Trazado 8801" d="M0,0H50V50H0Z" transform="translate(2.992)" fill="none"/>
    <path id="Trazado_8802" data-name="Trazado 8802" d="M46.805,51.351H11.179a2.545,2.545,0,0,1-2.545-2.545V25.9H1L27.279,2.014a2.545,2.545,0,0,1,3.425,0L56.984,25.9H49.35v22.9A2.545,2.545,0,0,1,46.805,51.351ZM13.724,46.262H44.26V21.214L28.992,7.335,13.724,21.214Z" transform="translate(-1 -1.351)" fill="#f2f9fa"/>
    <path id="Icon_open-arrow-thick-top" data-name="Icon open-arrow-thick-top" d="M5.94,0,0,6H4V16H8V6h4Z" transform="translate(21.642 25)" fill="#bc2026"/>
</svg>