<svg id="padlock-lock-svgrepo-com" xmlns="http://www.w3.org/2000/svg" width="35.366" height="50" viewBox="0 0 35.366 50">
    <g id="Grupo_3206" data-name="Grupo 3206">
    <g id="Grupo_3205" data-name="Grupo 3205">
        <path id="Trazado_8799" data-name="Trazado 8799" d="M106.634,23.171V14.024a14.024,14.024,0,0,0-28.049,0v9.146H74.927V50h35.366V23.171Zm-24.39-9.146a10.366,10.366,0,1,1,20.732,0v9.146H82.244Zm24.39,32.317H78.585V26.829h28.049Z" transform="translate(-74.927 0)" fill="#f2f9fa"/>
    </g>
    </g>
    <g id="Grupo_3208" data-name="Grupo 3208" transform="translate(12.195 29.268)">
    <g id="Grupo_3207" data-name="Grupo 3207">
        <path id="Trazado_8800" data-name="Trazado 8800" d="M205.293,299.707a5.487,5.487,0,0,0-1.829,10.661v3.363h3.659v-3.363a5.487,5.487,0,0,0-1.829-10.661Zm0,7.317a1.829,1.829,0,1,1,1.829-1.829A1.831,1.831,0,0,1,205.293,307.024Z" transform="translate(-199.805 -299.707)" fill="#bc2026"/>
    </g>
    </g>
</svg>