<svg id="gym-svgrepo-com" xmlns="http://www.w3.org/2000/svg" width="63.488" height="50" viewBox="0 0 63.488 50">
    <path id="Trazado_8792" data-name="Trazado 8792" d="M27.431,22.477,16.833,7.34l5.046-3.533,10.6,15.137Z" transform="translate(29.498 -3.807)" fill="#bc2026"/>
    <path id="Trazado_8793" data-name="Trazado 8793" d="M47.845,28.177l-5.236-7.49L17.684,38.169l5.236,7.49-4.985,3.5L3.972,29.182l4.985-3.5,5.236,7.49L39.119,15.695,33.883,8.2l4.985-3.5L52.831,24.681Z" transform="translate(3.343 -1.932)" fill="#f2f9fa"/>
    <path id="Trazado_8794" data-name="Trazado 8794" d="M23.151,12.877,28.2,9.344,24.664,4.3,19.618,7.831Z" transform="translate(35.291 -2.785)" fill="#f2f9fa"/>
    <path id="Trazado_8795" data-name="Trazado 8795" d="M17.733,29.268,7.133,14.131,2.088,17.664,12.687,32.8Z" transform="translate(-0.575 17.199)" fill="#bc2026"/>
    <path id="Trazado_8796" data-name="Trazado 8796" d="M10.175,21.962,5.13,25.5,1.6,20.449l5.046-3.533Z" transform="translate(-1.597 22.993)" fill="#f2f9fa"/>
</svg>