<svg id="stars-svgrepo-com_1_" data-name="stars-svgrepo-com (1)" xmlns="http://www.w3.org/2000/svg" width="48.229" height="50" viewBox="0 0 48.229 50">
    <path id="Trazado_8803" data-name="Trazado 8803" d="M14.422,31.526l1.2,3.263a.312.312,0,0,0,.586,0l1.2-3.263a9.621,9.621,0,0,1,5.7-5.7l3.263-1.2a.312.312,0,0,0,0-.586l-3.264-1.2a9.621,9.621,0,0,1-5.7-5.7l-1.2-3.263a.312.312,0,0,0-.586,0l-1.2,3.263a9.622,9.622,0,0,1-5.7,5.7l-3.263,1.2a.312.312,0,0,0,0,.586l3.263,1.2A9.621,9.621,0,0,1,14.422,31.526Z" transform="translate(-5.256 -11.155)" fill="#f2f9fa"/>
    <path id="Trazado_8804" data-name="Trazado 8804" d="M105.234,139.694l-3.263-1.2a9.621,9.621,0,0,1-5.7-5.7l-1.2-3.263a.312.312,0,0,0-.586,0l-1.2,3.263a9.622,9.622,0,0,1-5.7,5.7l-3.263,1.2a.312.312,0,0,0,0,.586l3.264,1.2a9.622,9.622,0,0,1,5.7,5.7l1.2,3.263a.312.312,0,0,0,.586,0l1.2-3.263a9.621,9.621,0,0,1,5.7-5.7l3.264-1.2a.312.312,0,0,0,0-.586Z" transform="translate(-71.658 -108.819)" fill="#f2f9fa"/>
    <path id="Trazado_8805" data-name="Trazado 8805" d="M227.088,78.542l-2.218-.818A6.54,6.54,0,0,1,221,73.852l-.818-2.218a.212.212,0,0,0-.4,0l-.818,2.218a6.539,6.539,0,0,1-3.873,3.873l-2.218.818a.212.212,0,0,0,0,.4l2.218.818a6.54,6.54,0,0,1,3.873,3.873l.818,2.218a.212.212,0,0,0,.4,0L221,83.631a6.539,6.539,0,0,1,3.873-3.873l2.218-.818a.212.212,0,0,0,0-.4Z" transform="translate(-178.998 -59.85)" fill="#f2f9fa"/>
    <path id="Trazado_8806" data-name="Trazado 8806" d="M217.14,246.742l-1.547-.571a4.561,4.561,0,0,1-2.7-2.7l-.571-1.547a.148.148,0,0,0-.278,0l-.571,1.547a4.56,4.56,0,0,1-2.7,2.7l-1.547.571a.148.148,0,0,0,0,.278l1.547.571a4.561,4.561,0,0,1,2.7,2.7l.571,1.547a.148.148,0,0,0,.278,0l.571-1.547a4.561,4.561,0,0,1,2.7-2.7l1.547-.571a.148.148,0,0,0,0-.278Z" transform="translate(-174.423 -201.936)" fill="#bc2026"/>
    <path id="Trazado_8807" data-name="Trazado 8807" d="M155.106,4.915l-1.547-.571a4.56,4.56,0,0,1-2.7-2.7L150.288.1a.148.148,0,0,0-.278,0l-.571,1.547a4.562,4.562,0,0,1-2.7,2.7l-1.547.571a.148.148,0,0,0,0,.278l1.547.571a4.561,4.561,0,0,1,2.7,2.7l.571,1.547a.148.148,0,0,0,.278,0l.571-1.547a4.56,4.56,0,0,1,2.7-2.7l1.547-.571a.148.148,0,0,0,0-.278Z" transform="translate(-122.049 0)" fill="#bc2026"/>
    <path id="Trazado_8808" data-name="Trazado 8808" d="M40.479,223.826l-1.946-.717a5.739,5.739,0,0,1-3.4-3.4l-.717-1.946a.186.186,0,0,0-.349,0l-.717,1.946a5.738,5.738,0,0,1-3.4,3.4l-1.946.717a.186.186,0,0,0,0,.349l1.946.718a5.738,5.738,0,0,1,3.4,3.4l.717,1.946a.186.186,0,0,0,.349,0l.718-1.946a5.737,5.737,0,0,1,3.4-3.4l1.946-.718a.186.186,0,0,0,0-.349Z" transform="translate(-23.723 -182.2)" fill="#bc2026"/>
</svg>