<svg width="20" height="20" viewBox="0 0 20 20" fill="none" xmlns="http://www.w3.org/2000/svg">
<path fill-rule="evenodd" clip-rule="evenodd" d="M12.7072 5.29308C12.8947 5.48061 13 5.73492 13 6.00008C13 6.26525 12.8947 6.51955 12.7072 6.70708L9.41421 10.0001L12.7072 13.2931C12.8894 13.4817 12.9902 13.7343 12.9879 13.9965C12.9856 14.2587 12.8804 14.5095 12.695 14.6949C12.5096 14.8803 12.2588 14.9855 11.9966 14.9878C11.7344 14.99 11.4818 14.8892 11.2932 14.7071L7.29321 10.7071C7.10574 10.5196 7.00043 10.2652 7.00043 10.0001C7.00043 9.73492 7.10574 9.48061 7.29321 9.29308L11.2932 5.29308C11.4807 5.10561 11.7351 5.00029 12.0002 5.00029C12.2654 5.00029 12.5197 5.10561 12.7072 5.29308Z" fill="black"/>
</svg>
