<svg xmlns="http://www.w3.org/2000/svg" width="16.193" height="16.193" viewBox="0 0 16.193 16.193">
  <path id="Icon_material-add-shopping-cart" data-name="Icon material-add-shopping-cart" d="M9.532,7.669h1.606V5.355h2.41V3.813h-2.41V1.5H9.532V3.813H7.122V5.355h2.41Zm-3.213,6.94A1.543,1.543,0,1,0,7.926,16.15,1.573,1.573,0,0,0,6.319,14.608Zm8.032,0a1.543,1.543,0,1,0,1.606,1.542A1.573,1.573,0,0,0,14.351,14.608ZM6.456,12.1l.024-.093L7.2,10.753h5.984a1.61,1.61,0,0,0,1.406-.794l3.1-5.405-1.4-.74h-.008L15.4,5.355,13.187,9.211H7.548L7.444,9l-1.8-3.647L4.881,3.813,4.126,2.271H1.5V3.813H3.106L6,9.666,4.914,11.555a1.445,1.445,0,0,0-.2.74,1.58,1.58,0,0,0,1.606,1.542h9.638V12.3h-9.3A.2.2,0,0,1,6.456,12.1Z" transform="translate(-1.5 -1.5)" fill="#373933"/>
</svg>
