<svg id="icons_Q2" data-name="icons Q2" xmlns="http://www.w3.org/2000/svg" width="10.27" height="13.295" viewBox="0 0 10.27 13.295">
  <path id="Trazado_9048" data-name="Trazado 9048" d="M19.114,11.208a.906.906,0,1,1-.906.906.876.876,0,0,1,.906-.906m0-1.208a2.114,2.114,0,1,0,2.114,2.114A2.114,2.114,0,0,0,19.114,10Z" transform="translate(-13.98 -7.584)" fill="#bc2026"/>
  <path id="Trazado_9049" data-name="Trazado 9049" d="M12.135,3.208a4,4,0,0,1,3.927,4.229c0,2.416-2.6,5.044-3.927,6.4-1.329-1.359-3.927-4.138-3.927-6.4a4.087,4.087,0,0,1,3.927-4.229m0-1.208A5.2,5.2,0,0,0,7,7.437c0,2.99,3.474,6.434,4.712,7.672a.574.574,0,0,0,.846,0C13.8,13.87,17.27,10.487,17.27,7.437A5.167,5.167,0,0,0,12.135,2Z" transform="translate(-7 -2)" fill="#bc2026"/>
</svg>
