<svg xmlns="http://www.w3.org/2000/svg" width="68.579" height="68.159" viewBox="0 0 68.579 68.159">
  <g id="noun-cardio-4510396" transform="translate(-91.019 -66.51)">
    <path id="Trazado_9045" data-name="Trazado 9045" d="M198.192,125.869h-.838v-16.62a6.916,6.916,0,0,0-4.888-6.564v-4.19a1.32,1.32,0,0,0-1.4-1.4h-.279V90.114l2.654.279h.14a1.432,1.432,0,0,0,1.4-1.4V82.851a1.32,1.32,0,0,0-1.4-1.4H180.314a1.32,1.32,0,0,0-1.4,1.4V87.6a1.485,1.485,0,0,0,1.257,1.4l2.374.279v7.961h-.279a1.32,1.32,0,0,0-1.4,1.4v3.911h-17.04a1.268,1.268,0,0,0-.978.419l-.419.279L159.5,100.31a1.35,1.35,0,0,0-1.955,0l-2.374-2.933V89.7l1.257,1.117a1.35,1.35,0,0,0,1.955,0l3.352-3.631a1.358,1.358,0,0,0-.14-1.955L149.727,74.332a1.509,1.509,0,0,0-.978-.419,1.268,1.268,0,0,0-.978.419l-3.352,3.631a1.358,1.358,0,0,0,.14,1.955l4.19,3.911-3.771,2.514L142.6,83.829V70a3.492,3.492,0,1,0-6.983,0V85.365a3.5,3.5,0,0,0,1.117,2.514l5.447,5.307a3.271,3.271,0,0,0,2.374.978,3.207,3.207,0,0,0,1.955-.559l1.816-1.257v6.285a3.425,3.425,0,0,0,.838,2.235l3.631,4.469-.559.559a1.35,1.35,0,0,0,0,1.955l2.654,2.654-.419.279a1.509,1.509,0,0,0-.419.978V125.87h-7.263a5.9,5.9,0,0,0-5.866,5.866v1.536a1.32,1.32,0,0,0,1.4,1.4H202.8a1.32,1.32,0,0,0,1.4-1.4v-1.536a6.119,6.119,0,0,0-6.006-5.866ZM181.85,86.482v-2.1h10.475V87.6Zm7.682,13.548h.279v2.514h-6.006V100.03Zm-4.19-2.793v-6.7H188v6.7Zm-20.95,8.1h26.258a4.053,4.053,0,0,1,4.05,4.05v16.62h-37.99V112.6l.978-.978Zm-5.726-2.1,1.816,1.816-3.631,3.352-1.676-1.676ZM147.491,78.8l1.536-1.676,9.917,9.079-1.676,1.676-2.514-2.374Zm-2.514,12.431c-.279.14-.7.14-.838-.14l-5.447-5.307a.726.726,0,0,1-.279-.559V69.862a.7.7,0,1,1,1.4,0V84.388a1.268,1.268,0,0,0,.419.978l3.631,3.492a1.272,1.272,0,0,0,1.676.14l5.307-3.492.978.978Zm9.637,12.151-3.352-4.19a.513.513,0,0,1-.14-.419v-8.1l1.4-.978v8.8l3.212,3.911Zm46.65,28.493H143.72v-.14a3.1,3.1,0,0,1,3.073-3.073h51.539a3.111,3.111,0,0,1,2.933,3.212Z" transform="translate(-44.601)" fill="#bc2026"/>
    <path id="Trazado_9046" data-name="Trazado 9046" d="M325.335,341.734a1.986,1.986,0,0,0,.838-.279l2.1-1.676a7.666,7.666,0,0,0,5.168,1.955,7.682,7.682,0,1,0-7.682-7.682,7.173,7.173,0,0,0,.838,3.492l-2.1,1.676a1.5,1.5,0,0,0-.279,1.955A1.724,1.724,0,0,0,325.335,341.734Zm8.1-12.57a4.888,4.888,0,1,1,0,9.777,3.8,3.8,0,0,1-2.793-.978l3.631-2.793a1.4,1.4,0,1,0-1.676-2.235l-3.631,2.793a3.834,3.834,0,0,1-.279-1.816A4.545,4.545,0,0,1,333.436,329.163Z" transform="translate(-202.889 -218.381)" fill="#bc2026"/>
  </g>
</svg>
