<svg xmlns="http://www.w3.org/2000/svg" width="79.791" height="66.502" viewBox="0 0 79.791 66.502">
  <g id="noun-cart-2004663" transform="translate(-70.001 -46.631)">
    <path id="Trazado_9047" data-name="Trazado 9047" d="M88.592,63.274l55.3.031-7.349,27.423H95.948Zm8.948,6.161v4.532h37.4V69.436Zm35.472,10.625H99.473v4.532h33.538Zm-8.344,24.792a3.749,3.749,0,1,1,3.749,3.749A3.747,3.747,0,0,1,124.667,104.853Zm3.749-8.281a8.28,8.28,0,1,0,8.281,8.281A8.279,8.279,0,0,0,128.416,96.572ZM104.068,101.1a3.749,3.749,0,1,1-3.747,3.749A3.763,3.763,0,0,1,104.068,101.1Zm8.279,3.749a8.279,8.279,0,1,0-8.279,8.279A8.3,8.3,0,0,0,112.347,104.853ZM80.68,51.256l11.79,44h47.547l9.775-36.482-62.324-.033L84.222,46.631H70v4.625H80.68Z" fill="#bc2026"/>
  </g>
</svg>
