<svg className="mt-2" xmlns="http://www.w3.org/2000/svg" width="30" height="30" viewBox="0 0 30 30">
    <g id="dollar-svgrepo-com" transform="translate(1.5 1.5)">
        <path id="Elipse_2833" data-name="Elipse 2833" d="M13.5-1.5A15,15,0,0,1,24.107,24.107,15,15,0,1,1,7.661-.321,14.907,14.907,0,0,1,13.5-1.5Zm0,27.353A12.353,12.353,0,1,0,1.147,13.5,12.367,12.367,0,0,0,13.5,25.853Z" transform="translate(0 0)" fill="#f2f9fa"/>
        <path id="Trazado_8934" data-name="Trazado 8934" d="M176.915,121.213v-1.8a9.545,9.545,0,0,1-3.643-.815l.644-2.217a8.356,8.356,0,0,0,3.558.833c1.221,0,2.057-.417,2.057-1.174,0-.72-.686-1.176-2.272-1.649-2.292-.682-3.858-1.629-3.858-3.467,0-1.668,1.329-2.975,3.622-3.373v-1.8h2.1v1.668a8.552,8.552,0,0,1,3.107.625l-.621,2.14a7.871,7.871,0,0,0-3.086-.645c-1.392,0-1.842.531-1.842,1.062,0,.625.75,1.023,2.572,1.629,2.549.8,3.578,1.837,3.578,3.544,0,1.688-1.35,3.126-3.814,3.505v1.932Z" transform="translate(-164.325 -99.736)" fill="red"/>
    </g>
</svg>