<svg xmlns="http://www.w3.org/2000/svg" width="30" height="30" viewBox="0 0 30 30">
  <g id="Grupo_3881" data-name="Grupo 3881" transform="translate(-969.437 -2024)">
    <path id="tool-svgrepo-com" d="M141.929,118.33a.36.36,0,0,0-.075-.094.481.481,0,0,0-.68,0l-6.471,6.472-2.55-2.551,6.475-6.476a.588.588,0,0,0,.075-.094.479.479,0,0,0-.169-.657,9.633,9.633,0,0,0-14.19,10.785l-11,11.006a.292.292,0,0,0,.011.413l6.374,6.375a.292.292,0,0,0,.413.011l11-11a9.632,9.632,0,0,0,10.791-14.188Zm-3.4,9.778a6.921,6.921,0,0,1-8.06,1.262l-.331.331,0,0-10.291,10.3-2.975-2.975,8.642-8.643a0,0,0,0,0,0,0L127.5,126.4a6.925,6.925,0,0,1,6.671-10.071l-4.992,4.988a1.2,1.2,0,0,0,0,1.7l4.676,4.677a1.2,1.2,0,0,0,1.7,0l4.988-4.988A6.928,6.928,0,0,1,138.526,128.108Z" transform="translate(856.178 1910.399)" fill="#f2f9fa"/>
    <path id="Intersección_1" data-name="Intersección 1" d="M-593.026,17542.908l-6.376-6.375a.293.293,0,0,1-.009-.414l5.436-5.437,1.912,1.914-3.821,3.822,2.972,2.973,3.821-3.824,1.914,1.914-5.436,5.438a.27.27,0,0,1-.2.08A.3.3,0,0,1-593.026,17542.908Z" transform="translate(1568.929 -15489)" fill="#fd0d1b"/>
  </g>
</svg>
