<svg xmlns="http://www.w3.org/2000/svg" width="24.67" height="36.196" viewBox="0 0 24.67 36.196">
  <g id="Grupo_3549" data-name="Grupo 3549" transform="translate(-721 -859)">
    <g id="Grupo_3549-2" data-name="Grupo 3549" transform="translate(723.138 878.194)">
      <path id="Trazado_8942" data-name="Trazado 8942" d="M4062.957,376.524l-3.029,7.841,4.227-1.916,1.855,4.154,2.809-8" transform="translate(-4059.928 -375.914)" fill="none" stroke="#f2f9fa" stroke-width="2"/>
      <path id="Trazado_8943" data-name="Trazado 8943" d="M2.955,0,0,9.132,3.506,7.8l1.9,3.323L8.817,2.08" transform="translate(6.41 5.667) rotate(-40)" fill="none" stroke="#f2f9fa" stroke-width="2"/>
    </g>
    <g id="noun-warranty-85334" transform="translate(721 859)">
      <path id="Trazado_8945" data-name="Trazado 8945" d="M65.187,67.222l3.661,3.9,4.626-7.54" transform="translate(-58.106 -56.124)" fill="none" stroke="red" stroke-width="2"/>
      <g id="Trazado_8946" data-name="Trazado 8946" transform="translate(0 0)" fill="none">
        <path d="M11.225,0A11.225,11.225,0,1,1,0,11.225,11.225,11.225,0,0,1,11.225,0Z" stroke="none"/>
        <path d="M 11.22528266906738 2.000001907348633 C 6.138442993164062 2.000001907348633 2.000001907348633 6.138442993164062 2.000001907348633 11.22528266906738 C 2.000001907348633 16.3121223449707 6.138442993164062 20.45056343078613 11.22528266906738 20.45056343078613 C 16.3121223449707 20.45056343078613 20.45056343078613 16.3121223449707 20.45056343078613 11.22528266906738 C 20.45056343078613 6.138442993164062 16.3121223449707 2.000001907348633 11.22528266906738 2.000001907348633 M 11.22528266906738 1.9073486328125e-06 C 17.42483329772949 1.9073486328125e-06 22.45056343078613 5.025732040405273 22.45056343078613 11.22528266906738 C 22.45056343078613 17.42483329772949 17.42483329772949 22.45056343078613 11.22528266906738 22.45056343078613 C 5.025732040405273 22.45056343078613 1.9073486328125e-06 17.42483329772949 1.9073486328125e-06 11.22528266906738 C 1.9073486328125e-06 5.025732040405273 5.025732040405273 1.9073486328125e-06 11.22528266906738 1.9073486328125e-06 Z" stroke="none" fill="#f2f9fa"/>
      </g>
    </g>
  </g>
</svg>