<svg xmlns="http://www.w3.org/2000/svg" width="52.008" height="32.35" viewBox="0 0 52.008 32.35">
  <g id="Grupo_3794" data-name="Grupo 3794" transform="translate(-998.849 -869.825)">
    <path id="Trazado_8785" data-name="Trazado 8785" d="M1541.429,2043.767l-18.548,2.889-12.516-9.347,13.316-2.1Z" transform="translate(-505 -1154.5)" fill="none" stroke="#f2f9fa" stroke-width="0.7"/>
    <g id="Grupo_3532" data-name="Grupo 3532" transform="translate(1004 879.5)">
      <circle id="Elipse_20" data-name="Elipse 20" cx="1.5" cy="1.5" r="1.5" transform="translate(0 2)" fill="red"/>
      <circle id="Elipse_21" data-name="Elipse 21" cx="1" cy="1" r="1" transform="translate(12.743 11.5)" fill="red"/>
      <circle id="Elipse_22" data-name="Elipse 22" cx="1.5" cy="1.5" r="1.5" transform="translate(30.858 8.5)" fill="red"/>
      <circle id="Elipse_23" data-name="Elipse 23" cx="1" cy="1" r="1" transform="translate(13.653)" fill="red"/>
    </g>
    <path id="Trazado_8941" data-name="Trazado 8941" d="M4183.373,559.629l-2.857,9.024,1.542,7.528,3.129,3.492,7.891,3.129h2.54l2.97,3.446,2.442-1.57,3.279,4.884,3.7-4.326,4.675.558,1.046-1.64h5.267l3.41,5.824h1.771l-3.22-6.467,4.964-6.816-1.178-2.548,1.178-4.68,2.963-1.362-.826-2.353,2.467-2.876-2.2-2.066L4226.9,564.3l-3.005.885-5.743,4.991-2.5-4.423-5.082-2.571-5.32-1.282Z" transform="translate(-3180.667 311.196)" fill="none" stroke="#f2f9fa" stroke-linejoin="round" stroke-width="2"/>
  </g>
</svg>