<svg id="dollar-svgrepo-com" xmlns="http://www.w3.org/2000/svg" width="39.514" height="39.514" viewBox="0 0 39.514 39.514">
  <path id="Elipse_2833" data-name="Elipse 2833" d="M18.257-1.5a19.751,19.751,0,0,1,13.97,33.727A19.757,19.757,0,1,1,10.566.053,19.635,19.635,0,0,1,18.257-1.5Zm0,36.027a16.27,16.27,0,1,0-16.27-16.27A16.289,16.289,0,0,0,18.257,34.527Z" transform="translate(1.5 1.5)" fill="#373933"/>
  <path id="Trazado_8934" data-name="Trazado 8934" d="M178.07,126.116v-2.37a12.572,12.572,0,0,1-4.8-1.073l.848-2.92a11.006,11.006,0,0,0,4.686,1.1c1.609,0,2.709-.549,2.709-1.546,0-.949-.9-1.548-2.992-2.172-3.019-.9-5.081-2.146-5.081-4.566,0-2.2,1.751-3.918,4.77-4.442v-2.372h2.764v2.2a11.264,11.264,0,0,1,4.092.823l-.818,2.819a10.367,10.367,0,0,0-4.065-.85c-1.834,0-2.427.7-2.427,1.4,0,.823.988,1.347,3.387,2.146,3.357,1.049,4.713,2.42,4.713,4.668,0,2.223-1.778,4.117-5.023,4.617v2.544Z" transform="translate(-159.512 -95.853)" fill="red"/>
</svg>
