<svg
              id="Cart"
              xmlns="http://www.w3.org/2000/svg"
              width="40"
              height="40"
              viewBox="0 0 40 40"
            >
              <rect
                id="Rectángulo_7"
                data-name="Rectángulo 7"
                width="40"
                height="40"
                fill="#fff"
                opacity="0"
              />
              <path
                id="Icon_material-add-shopping-cart"
                data-name="Icon material-add-shopping-cart"
                d="M11.421,9.119H13.4V6.262h2.976v-1.9H13.4V1.5H11.421V4.357H8.444v1.9h2.976ZM7.452,17.69a1.906,1.906,0,1,0,1.984,1.9A1.943,1.943,0,0,0,7.452,17.69Zm9.921,0a1.906,1.906,0,1,0,1.984,1.9A1.943,1.943,0,0,0,17.373,17.69ZM7.621,14.6l.03-.114.893-1.552h7.391a1.989,1.989,0,0,0,1.736-.981L21.5,5.271l-1.726-.914h-.01l-1.091,1.9-2.738,4.762H8.97l-.129-.257-2.222-4.5-.942-1.9-.933-1.9H1.5v1.9H3.484l3.571,7.229L5.716,13.919a1.784,1.784,0,0,0-.248.914,1.951,1.951,0,0,0,1.984,1.9h11.9v-1.9H7.869A.247.247,0,0,1,7.621,14.6Z"
                transform="translate(8.5 8.5)"
              />
            </svg>