<svg width="35" height="35" viewBox="0 0 35 35" fill="none" xmlns="http://www.w3.org/2000/svg">
<g clip-path="url(#clip0_820_1093)">
<path d="M31.2277 9.72217H3.77211C3.28736 9.72217 2.82245 9.91474 2.47968 10.2575C2.1369 10.6003 1.94434 11.0652 1.94434 11.5499V29.2833C1.94434 29.768 2.1369 30.2329 2.47968 30.5757C2.82245 30.9185 3.28736 31.1111 3.77211 31.1111H31.2277C31.7124 31.1111 32.1773 30.9185 32.5201 30.5757C32.8629 30.2329 33.0554 29.768 33.0554 29.2833V11.5499C33.0554 11.0652 32.8629 10.6003 32.5201 10.2575C32.1773 9.91474 31.7124 9.72217 31.2277 9.72217ZM31.111 29.1666H3.88878V11.6666H31.111V29.1666Z" fill="white"/>
<path d="M8.32243 18.9098C8.89929 18.9098 9.4632 18.7387 9.94284 18.4182C10.4225 18.0977 10.7963 17.6422 11.0171 17.1092C11.2378 16.5763 11.2956 15.9898 11.1831 15.4241C11.0705 14.8583 10.7927 14.3386 10.3848 13.9307C9.97692 13.5228 9.45722 13.245 8.89144 13.1325C8.32566 13.0199 7.73922 13.0777 7.20627 13.2984C6.67332 13.5192 6.2178 13.893 5.89731 14.3727C5.57682 14.8523 5.40576 15.4162 5.40576 15.9931C5.40576 16.7666 5.71305 17.5085 6.26003 18.0555C6.80701 18.6025 7.54888 18.9098 8.32243 18.9098ZM8.32243 14.4375C8.63163 14.4298 8.93611 14.5144 9.19699 14.6806C9.45786 14.8467 9.66328 15.0869 9.787 15.3704C9.91072 15.6538 9.94713 15.9678 9.89157 16.272C9.83601 16.5763 9.69101 16.8571 9.4751 17.0785C9.25918 17.3 8.98214 17.452 8.67938 17.5153C8.37662 17.5785 8.06188 17.5501 7.77536 17.4336C7.48885 17.3171 7.24357 17.1178 7.07086 16.8612C6.89816 16.6046 6.80586 16.3024 6.80576 15.9931C6.80563 15.5872 6.96417 15.1973 7.24754 14.9067C7.5309 14.616 7.91665 14.4477 8.32243 14.4375Z" fill="white"/>
<path d="M7.68037 27.2222L13.5137 21.3888L16.6054 24.4805L13.8637 27.2222H15.8081L23.0609 19.9694L29.1665 26.0263V24.0819L23.5276 18.4722C23.3983 18.3439 23.2236 18.272 23.0415 18.272C22.8594 18.272 22.6847 18.3439 22.5554 18.4722L17.5387 23.4888L13.9706 19.9305C13.8414 19.8023 13.6666 19.7303 13.4845 19.7303C13.3024 19.7303 13.1277 19.8023 12.9984 19.9305L5.75537 27.2222H7.68037Z" fill="white"/>
<path d="M29.3026 2.91656C29.3026 2.65871 29.2001 2.41142 29.0178 2.22909C28.8355 2.04677 28.5882 1.94434 28.3304 1.94434H6.94146C6.68361 1.94434 6.43632 2.04677 6.254 2.22909C6.07167 2.41142 5.96924 2.65871 5.96924 2.91656V3.88878H29.3026V2.91656Z" fill="white"/>
<path d="M31.2276 6.80547C31.2276 6.54762 31.1252 6.30034 30.9428 6.11801C30.7605 5.93568 30.5132 5.83325 30.2554 5.83325H4.97759C4.71974 5.83325 4.47246 5.93568 4.29013 6.11801C4.1078 6.30034 4.00537 6.54762 4.00537 6.80547V7.7777H31.2276V6.80547Z" fill="white"/>
</g>
<defs>
<clipPath id="clip0_820_1093">
<rect width="35" height="35" fill="white"/>
</clipPath>
</defs>
</svg>
