<svg width="64" height="62" viewBox="0 0 64 62" fill="none" xmlns="http://www.w3.org/2000/svg">
<g clip-path="url(#clip0_757_8)">
<path d="M31.6865 15.2711C28.5148 15.2711 25.4143 16.1896 22.7773 17.9103C20.1403 19.6311 18.0852 22.0769 16.8721 24.9383C15.6589 27.7997 15.3421 30.9481 15.9619 33.9853C16.5816 37.0225 18.1099 39.812 20.3536 42.001C22.5972 44.1899 25.4554 45.68 28.5664 46.2826C31.6775 46.8852 34.9018 46.5734 37.8313 45.3865C40.7609 44.1997 43.2641 42.1911 45.0243 39.6149C46.7846 37.0388 47.7227 34.0107 47.7202 30.9138C47.7219 28.858 47.3082 26.8221 46.5029 24.9227C45.6976 23.0232 44.5164 21.2976 43.027 19.8445C41.5377 18.3915 39.7694 17.2395 37.8234 16.4548C35.8774 15.67 33.7919 15.2677 31.6865 15.2711V15.2711ZM31.6865 41.1045C29.6254 41.1045 27.6105 40.5079 25.8966 39.3901C24.1827 38.2723 22.8466 36.6834 22.0573 34.8243C21.2679 32.9653 21.0607 30.9195 21.4619 28.9455C21.8631 26.9715 22.8546 25.1579 24.3111 23.734C25.7676 22.31 27.6238 21.3397 29.645 20.9455C31.6662 20.5514 33.7617 20.7511 35.6666 21.5196C37.5716 22.288 39.2005 23.5905 40.3474 25.2626C41.4944 26.9348 42.1079 28.9013 42.1105 30.9138C42.1057 33.6118 41.0059 36.1979 39.0521 38.1056C37.0982 40.0133 34.4496 41.0872 31.6865 41.0919V41.1045ZM52.1173 14.631C52.1173 15.353 51.898 16.0589 51.4871 16.6592C51.0763 17.2596 50.4924 17.7275 49.8092 18.0038C49.126 18.2801 48.3742 18.3524 47.6489 18.2116C46.9236 18.0707 46.2574 17.723 45.7345 17.2124C45.2116 16.7019 44.8555 16.0514 44.7112 15.3432C44.567 14.635 44.641 13.901 44.924 13.2339C45.207 12.5668 45.6862 11.9966 46.3011 11.5955C46.9159 11.1944 47.6388 10.9802 48.3783 10.9802C48.8696 10.9792 49.3563 11.073 49.8104 11.2561C50.2645 11.4392 50.677 11.7081 51.0244 12.0473C51.3718 12.3865 51.6472 12.7893 51.8347 13.2327C52.0223 13.6761 52.1183 14.1513 52.1173 14.631V14.631ZM62.7408 18.3374C62.8422 13.5894 61.0253 8.99334 57.6829 5.54335C54.1417 2.29267 49.4394 0.522235 44.5798 0.609922C39.4157 0.324036 23.9417 0.324036 18.7777 0.609922C13.9202 0.516789 9.21826 2.28293 5.67711 5.5307C2.34398 8.98481 0.53087 13.5773 0.627066 18.3222C0.334272 23.3644 0.334272 38.4733 0.627066 43.5156C0.524184 48.2628 2.33924 52.8588 5.6797 56.3096C9.22258 59.5577 13.9238 61.3277 18.7829 61.243C23.9469 61.5289 39.4209 61.5289 44.585 61.243C49.4469 61.3435 54.1539 59.5712 57.6881 56.3096C61.0164 52.8515 62.8287 48.2602 62.7382 43.5156C63.031 38.4733 63.031 23.3771 62.7382 18.3374H62.7408ZM56.0713 48.9246C55.5406 50.238 54.7391 51.4309 53.7166 52.4293C52.6941 53.4276 51.4724 54.2102 50.1273 54.7284C46.0101 56.3222 36.2442 55.9554 31.6943 55.9554C27.1443 55.9554 13.2612 54.7284 13.2612 54.7284C10.8669 53.2441 8.83737 51.2625 7.31727 48.9246C5.68488 44.9045 6.06059 35.3691 6.06059 30.9265C6.06059 26.4838 5.69784 16.9332 7.31727 12.9283C7.84798 11.6171 8.64864 10.4261 9.66971 9.42911C10.6908 8.43213 11.9105 7.65036 13.2535 7.13217C17.3707 5.53829 27.1365 5.90513 31.6865 5.90513C36.2365 5.90513 46.0178 5.55094 50.1195 7.13217C51.4647 7.65034 52.6864 8.43288 53.7089 9.43125C54.7314 10.4296 55.5328 11.6225 56.0635 12.9359C57.6959 16.956 57.3202 26.4914 57.3202 30.9341C57.3202 35.3767 57.6985 44.9197 56.0661 48.9246H56.0713Z" fill="#BC2026" stroke="#BC2026" stroke-width="0.2"/>
</g>
<defs>
<clipPath id="clip0_757_8">
<rect width="63.36" height="61.85" fill="white"/>
</clipPath>
</defs>
</svg>
