<svg xmlns="http://www.w3.org/2000/svg" width="63.363" height="61.853" viewBox="0 0 63.363 61.853">
    <path id="Trazado_8999" data-name="Trazado 8999" d="M124.578,50.393c-2.81.515-5.7,1.04-8.533,1.554a1.568,1.568,0,0,0-1.226,1.766L118.59,73.3a1.567,1.567,0,0,0,1.744,1.2l8.3-1.507a1.568,1.568,0,0,0,1.226-1.766L128.4,63.6c.944-.248,1.892-.472,2.829-.683-.391,6.492.689,11.81,4.785,17.423l3.512,10.548-5.445,8.17-9.547,6.569a1.532,1.532,0,0,0-.66,1.224,5.648,5.648,0,0,0,1.179,4.12c1.591,1.353,2.919,1.336,4.832,1.224a1.5,1.5,0,0,0,.9-.306l9.052-6.781a1.5,1.5,0,0,0,.212-.188l7.166-7.864c4.24-.549,5.957-.051,8.321,1.625q.024,4.509.047,9.017a4.851,4.851,0,0,0,4.5,4.5,4.96,4.96,0,0,0,4.5-3.6c.085-4.123-.13-8.253-.188-11.655a4.757,4.757,0,0,0-2.216-4.332c-2.407-1.255-4.813-2.556-7.213-3.838a57.191,57.191,0,0,0,1.273-8.405c5.333-5.568,6.578-11.078,5.493-17.612.952.2,1.916.416,2.876.659L163.1,71.228a1.566,1.566,0,0,0,1.226,1.766l8.3,1.507a1.567,1.567,0,0,0,1.744-1.2l3.772-19.589a1.566,1.566,0,0,0-1.226-1.766c-2.9-.412-5.871-1.253-8.745-1.531a1.55,1.55,0,0,0-1.3,1.224l-1.7,8.83a73.106,73.106,0,0,0-37.34.188l-1.744-9.018a1.559,1.559,0,0,0-1.508-1.248ZM123.4,53.665l3.206,16.647-5.327.966-3.206-16.647Zm46.156,0,5.327.966-3.206,16.647-5.327-.966Zm-22.7,7.464a68.453,68.453,0,0,1,7.048.377,22.952,22.952,0,0,1,.024,8.264,11.333,11.333,0,0,1-4.408,6.4h-6.294a12.185,12.185,0,0,1-3.7-6.122,38.355,38.355,0,0,1-.637-8.429c2.768-.267,5.587-.488,7.968-.495Zm-12.541,1.483,1.58-.377a43.246,43.246,0,0,0,.707,8.524,15.7,15.7,0,0,0,4.926,8.052,1.527,1.527,0,0,0,1.013.377h7.543a1.5,1.5,0,0,0,.9-.306,14.862,14.862,0,0,0,5.893-8.405,26.386,26.386,0,0,0,.148-8.281l1.573.417c1.273,6.418.548,10.683-4.88,16.106a1.522,1.522,0,0,0-.448.989,56.516,56.516,0,0,1-1.462,9.559,1.551,1.551,0,0,0,.755,1.648c2.7,1.449,5.417,2.87,8.109,4.332a1.532,1.532,0,0,1,.707,1.577c.057,3.7.125,7.428.188,11.137a1.5,1.5,0,0,1-1.508,1.2,1.456,1.456,0,0,1-1.462-1.389c-.015-3.3-.031-6.61-.047-9.912a1.531,1.531,0,0,0-.613-1.2c-3.178-2.381-6.189-3.325-11.668-2.543a1.524,1.524,0,0,0-.9.495l-7.331,8.076-.071.047-8.557,6.428a2.625,2.625,0,0,1-2.169-.306,1.494,1.494,0,0,1-.33-1.224l9.1-6.262a1.512,1.512,0,0,0,.4-.4l6.035-9.042a1.529,1.529,0,0,0,.188-1.319l-3.771-11.3a1.532,1.532,0,0,0-.236-.424c-4.029-5.366-4.8-9.857-4.314-16.27Zm12.163,1.365a5.274,5.274,0,1,0,5.28,5.274A5.3,5.3,0,0,0,146.477,63.978Zm0,3.014a2.26,2.26,0,1,1-2.263,2.26A2.239,2.239,0,0,1,146.477,66.992Z" transform="translate(-114.796 -50.391)" fill="#bc2026"/>
</svg>