<svg xmlns="http://www.w3.org/2000/svg" width="58.82" height="70.08" viewBox="0 0 58.82 70.08">
    <g id="noun-inspiration-4328059" transform="translate(-122.5 -9.153)">
        <path id="Trazado_8983" data-name="Trazado 8983" d="M214.079,352.277a1.131,1.131,0,0,0-1.62.277l-2.262,3.393a1.131,1.131,0,0,0,.19,1.471l9.8,8.714v9.672h2.262v-10.18a1.133,1.133,0,0,0-.38-.846l-9.445-8.394,1.054-1.584,8.092,6.073a1.131,1.131,0,0,0,.679.226h11.312a1.131,1.131,0,0,0,.679-.226l8.092-6.07,1.054,1.584-9.445,8.394a1.132,1.132,0,0,0-.38.843v10.18h2.262v-9.672l9.8-8.71a1.131,1.131,0,0,0,.19-1.471l-2.262-3.394a1.131,1.131,0,0,0-1.62-.282l-8.747,6.561h-2.118a5.09,5.09,0,1,0-6.321,0h-2.118Zm14.026-.226a2.827,2.827,0,1,1-2,.828A2.829,2.829,0,0,1,228.106,352.051Z" transform="translate(-76.196 -296.572)" fill="#bc2026"/>
        <path id="Trazado_8984" data-name="Trazado 8984" d="M233.4,22.939l-12.556-1.824L215.224,9.733a1.176,1.176,0,0,0-2.027,0l-5.622,11.382-12.561,1.824a1.131,1.131,0,0,0-.627,1.93l9.089,8.859-2.149,12.51a1.131,1.131,0,0,0,1.642,1.192l11.238-5.906,11.235,5.906a1.131,1.131,0,0,0,1.641-1.192l-2.149-12.51,9.089-8.859a1.131,1.131,0,0,0-.627-1.93ZM217.6,40.752l-2.866-1.508h0a1.141,1.141,0,0,0-1.054,0l-2.866,1.507C216.916,41.241,216.038,41.989,217.6,40.752Zm5.332-8.229a1.134,1.134,0,0,0-.325,1l1.857,10.837-4.6-2.42c-6-3.43-7.107-2.2-11.312,0l-4.6,2.421L205.8,33.525h0a1.134,1.134,0,0,0-.325-1l-7.874-7.675,10.882-1.584a1.133,1.133,0,0,0,.852-.619l4.866-9.857,4.864,9.859a1.131,1.131,0,0,0,.852.619L230.8,24.851Z" transform="translate(-62.296)" fill="#bc2026"/>
        <path id="Trazado_8985" data-name="Trazado 8985" d="M542.5,148.75h4.525v2.262H542.5Z" transform="translate(-365.704 -121.55)" fill="#bc2026"/>
        <path id="Trazado_8986" data-name="Trazado 8986" d="M505.54,247.673l1.209-1.912,3.825,2.419-1.209,1.912Z" transform="translate(-333.522 -206.02)" fill="#bc2026"/>
        <path id="Trazado_8987" data-name="Trazado 8987" d="M505.38,38.269l3.824-2.417,1.208,1.912-3.824,2.417Z" transform="translate(-333.383 -23.247)" fill="#bc2026"/>
        <path id="Trazado_8988" data-name="Trazado 8988" d="M122.5,148.75h4.525v2.262H122.5Z" transform="translate(0 -121.55)" fill="#bc2026"/>
        <path id="Trazado_8989" data-name="Trazado 8989" d="M155.54,248.164l3.825-2.419,1.209,1.912-3.825,2.419Z" transform="translate(-28.769 -206.006)" fill="#bc2026"/>
        <path id="Trazado_8990" data-name="Trazado 8990" d="M155.53,37.662l1.208-1.912,3.826,2.418-1.208,1.912Z" transform="translate(-28.76 -23.158)" fill="#bc2026"/>
    </g>
</svg>