<svg className='ml-5' id="innovation_1_" data-name="innovation (1)" xmlns="http://www.w3.org/2000/svg" width="50.007" height="50" viewBox="0 0 50.007 50">
    <path id="Trazado_8896" data-name="Trazado 8896" d="M50.884,23.487l-4.45-1.471a20.606,20.606,0,0,0-.744-2.785l3.124-3.5L48.51,15.1a25.194,25.194,0,0,0-1.819-3.143L46.3,11.38l-4.575.952a21.17,21.17,0,0,0-2.05-2.051l.951-4.575-.576-.392A25.061,25.061,0,0,0,36.9,3.5l-.627-.3-3.5,3.124a20.773,20.773,0,0,0-2.785-.744l-1.471-4.45-.695-.051a25.3,25.3,0,0,0-3.642,0l-.695.05L22.016,5.573a20.814,20.814,0,0,0-2.785.744l-3.5-3.124L15.1,3.5a25.193,25.193,0,0,0-3.143,1.819l-.575.392.952,4.575a21.17,21.17,0,0,0-2.051,2.05l-4.574-.952-.392.576A25.06,25.06,0,0,0,3.5,15.1l-.3.627,3.122,3.5a20.773,20.773,0,0,0-.744,2.785l-4.45,1.471-.051.695C1.029,24.785,1,25.39,1,26s.029,1.218.073,1.821l.05.695,4.45,1.471a20.607,20.607,0,0,0,.744,2.785l-3.124,3.5.305.628A25.194,25.194,0,0,0,5.316,40.05l.392.576,4.575-.952a21.17,21.17,0,0,0,2.05,2.051L11.382,46.3l.576.392A25.062,25.062,0,0,0,15.1,48.51l.627.3,3.5-3.122a20.773,20.773,0,0,0,2.785.744l1.471,4.45.695.05c.6.043,1.206.072,1.82.072s1.218-.029,1.821-.073l.695-.05,1.471-4.45a20.606,20.606,0,0,0,2.785-.744l3.5,3.124.628-.305A25.194,25.194,0,0,0,40.05,46.69l.576-.392-.952-4.575a21.17,21.17,0,0,0,2.051-2.05l4.575.951.392-.576A25.061,25.061,0,0,0,48.511,36.9l.3-.627-3.124-3.5a20.814,20.814,0,0,0,.744-2.785l4.45-1.471.05-.695c.045-.6.074-1.207.074-1.821s-.029-1.218-.073-1.821l-.05-.695ZM48.9,26.98,44.59,28.4l-.1.624a18.582,18.582,0,0,1-.964,3.608l-.223.59,3.019,3.388c-.3.573-.626,1.137-.975,1.685l-4.425-.921-.4.49a18.977,18.977,0,0,1-2.656,2.655l-.49.4.922,4.425q-.82.522-1.685.976L33.225,43.3l-.591.225a18.613,18.613,0,0,1-3.607.963l-.624.1L26.98,48.9c-.647.032-1.309.032-1.955,0L23.6,44.591l-.624-.1a18.513,18.513,0,0,1-3.607-.964l-.591-.224-3.388,3.02q-.863-.451-1.685-.975l.921-4.425-.49-.4a18.977,18.977,0,0,1-2.655-2.656l-.4-.49L6.658,38.3q-.523-.822-.976-1.685L8.7,33.226l-.225-.591a18.613,18.613,0,0,1-.963-3.607l-.1-.624L3.105,26.98q-.046-.977,0-1.954L7.417,23.6l.1-.624a18.513,18.513,0,0,1,.964-3.607l.224-.591-3.02-3.388c.3-.573.626-1.137.975-1.685l4.425.921.4-.49a18.976,18.976,0,0,1,2.656-2.655l.49-.4L13.709,6.66q.822-.523,1.685-.976L18.782,8.7l.59-.223a18.656,18.656,0,0,1,3.608-.964l.624-.1,1.424-4.308q.977-.048,1.955,0l1.424,4.308.624.1a18.513,18.513,0,0,1,3.607.964l.591.224,3.388-3.02c.573.3,1.137.626,1.685.975l-.921,4.425.49.4a18.977,18.977,0,0,1,2.655,2.656l.4.49,4.425-.922q.522.82.976,1.685L43.3,18.78l.225.591a18.614,18.614,0,0,1,.963,3.607l.1.624L48.9,25.026q.046.977,0,1.954Z" transform="translate(-1 -1.007)" fill="#373933"/>
    <path id="Trazado_8897" data-name="Trazado 8897" d="M22.9,11A8.236,8.236,0,0,0,15,18.875a8.093,8.093,0,0,0,2.8,6.4,5.85,5.85,0,0,1,2.071,4.433v4.067h6.507V29.653A5.943,5.943,0,0,1,28.5,25.238,8.13,8.13,0,0,0,22.9,11Zm1.863,21.144H21.507V30.521h3.253Zm2.668-8.134a7.68,7.68,0,0,0-2.622,4.88h-.86V21.1l2.2-2.2L25,17.746l-1.865,1.865-1.865-1.865-1.15,1.15,2.2,2.2v7.8h-.854a7.51,7.51,0,0,0-2.593-4.849,6.476,6.476,0,0,1-2.243-5.12,6.587,6.587,0,0,1,6.313-6.295,6.506,6.506,0,0,1,6.7,6.5,6.494,6.494,0,0,1-2.212,4.88Z" transform="translate(1.87 2.611)" fill="#bc2026"/>
</svg>