<svg xmlns="http://www.w3.org/2000/svg" width="16.439" height="16.435" viewBox="0 0 16.439 16.435">
  <path id="Icon_awesome-instagram" data-name="Icon awesome-instagram" d="M8.216,6.242a4.214,4.214,0,1,0,4.214,4.214A4.207,4.207,0,0,0,8.216,6.242Zm0,6.953a2.739,2.739,0,1,1,2.739-2.739,2.744,2.744,0,0,1-2.739,2.739Zm5.369-7.126a.983.983,0,1,1-.983-.983A.981.981,0,0,1,13.585,6.069Zm2.791,1a4.864,4.864,0,0,0-1.328-3.444A4.9,4.9,0,0,0,11.6,2.3c-1.357-.077-5.424-.077-6.781,0A4.889,4.889,0,0,0,1.38,3.619,4.88,4.88,0,0,0,.052,7.063c-.077,1.357-.077,5.424,0,6.781A4.864,4.864,0,0,0,1.38,17.288a4.9,4.9,0,0,0,3.444,1.328c1.357.077,5.424.077,6.781,0a4.864,4.864,0,0,0,3.444-1.328,4.9,4.9,0,0,0,1.328-3.444c.077-1.357.077-5.42,0-6.777ZM14.623,15.3a2.774,2.774,0,0,1-1.562,1.562c-1.082.429-3.649.33-4.845.33s-4.845-.33-4.845-.33A5.068,5.068,0,0,1,1.809,15.3c-.429-1.082-.33-3.649-.33-4.845s-.1-3.766.33-4.845A2.774,2.774,0,0,1,3.371,4.048c1.082-.429,3.649-.33,4.845-.33s3.766-.1,4.845.33a2.774,2.774,0,0,1,1.562,1.562c.429,1.082.33,3.649.33,4.845S15.052,14.222,14.623,15.3Z" transform="translate(0.005 -2.238)"/>
</svg>
