<svg xmlns="http://www.w3.org/2000/svg" width="24.453" height="24.447" viewBox="0 0 24.453 24.447">
  <path id="Icon_awesome-instagram" data-name="Icon awesome-instagram" d="M12.067,8.117A6.188,6.188,0,1,0,18.255,14.3,6.178,6.178,0,0,0,12.067,8.117Zm0,10.211A4.023,4.023,0,1,1,16.09,14.3a4.03,4.03,0,0,1-4.023,4.023ZM19.952,7.864a1.443,1.443,0,1,1-1.443-1.443A1.44,1.44,0,0,1,19.952,7.864Zm4.1,1.465A7.142,7.142,0,0,0,22.1,4.272a7.189,7.189,0,0,0-5.057-1.95c-1.993-.113-7.965-.113-9.958,0A7.179,7.179,0,0,0,2.029,4.267,7.166,7.166,0,0,0,.08,9.323c-.113,1.993-.113,7.965,0,9.958a7.142,7.142,0,0,0,1.95,5.057,7.2,7.2,0,0,0,5.057,1.95c1.993.113,7.965.113,9.958,0a7.142,7.142,0,0,0,5.057-1.95,7.189,7.189,0,0,0,1.949-5.057c.113-1.993.113-7.96,0-9.952Zm-2.574,12.09a4.073,4.073,0,0,1-2.294,2.294c-1.589.63-5.358.485-7.114.485s-7.114-.485-7.114-.485a7.442,7.442,0,0,1-2.294-2.294c-.63-1.589-.485-5.358-.485-7.114s-.14-5.531.485-7.114A4.073,4.073,0,0,1,4.953,4.9c1.589-.63,5.358-.485,7.114-.485s5.531-.14,7.114.485a4.073,4.073,0,0,1,2.294,2.294c.63,1.589.485,5.358.485,7.114S22.106,19.836,21.476,21.419Z" transform="translate(0.162 -2.081)" fill="#fff" stroke="#fff" stroke-width="0.2"/>
</svg>