<svg width="35" height="35" viewBox="0 0 35 35" fill="none" xmlns="http://www.w3.org/2000/svg">
<path fill-rule="evenodd" clip-rule="evenodd" d="M10.9375 25.1562C10.9375 24.8662 11.0527 24.588 11.2579 24.3829C11.463 24.1777 11.7412 24.0625 12.0312 24.0625H31.7188C32.0088 24.0625 32.287 24.1777 32.4921 24.3829C32.6973 24.588 32.8125 24.8662 32.8125 25.1562C32.8125 25.4463 32.6973 25.7245 32.4921 25.9296C32.287 26.1348 32.0088 26.25 31.7188 26.25H12.0312C11.7412 26.25 11.463 26.1348 11.2579 25.9296C11.0527 25.7245 10.9375 25.4463 10.9375 25.1562ZM10.9375 16.4062C10.9375 16.1162 11.0527 15.838 11.2579 15.6329C11.463 15.4277 11.7412 15.3125 12.0312 15.3125H31.7188C32.0088 15.3125 32.287 15.4277 32.4921 15.6329C32.6973 15.838 32.8125 16.1162 32.8125 16.4062C32.8125 16.6963 32.6973 16.9745 32.4921 17.1796C32.287 17.3848 32.0088 17.5 31.7188 17.5H12.0312C11.7412 17.5 11.463 17.3848 11.2579 17.1796C11.0527 16.9745 10.9375 16.6963 10.9375 16.4062ZM10.9375 7.65625C10.9375 7.36617 11.0527 7.08797 11.2579 6.88285C11.463 6.67773 11.7412 6.5625 12.0312 6.5625H31.7188C32.0088 6.5625 32.287 6.67773 32.4921 6.88285C32.6973 7.08797 32.8125 7.36617 32.8125 7.65625C32.8125 7.94633 32.6973 8.22453 32.4921 8.42965C32.287 8.63477 32.0088 8.75 31.7188 8.75H12.0312C11.7412 8.75 11.463 8.63477 11.2579 8.42965C11.0527 8.22453 10.9375 7.94633 10.9375 7.65625Z" fill="white"/>
<path d="M4.90414 4.79931C4.94135 4.67869 5.01624 4.57317 5.1178 4.49821C5.21937 4.42326 5.34228 4.38281 5.46851 4.38281C5.59475 4.38281 5.71766 4.42326 5.81923 4.49821C5.92079 4.57317 5.99567 4.67869 6.03289 4.79931L6.38726 5.95869C6.46383 6.21025 6.69351 6.38306 6.95164 6.38306H8.15695C8.72352 6.38306 8.96633 7.1115 8.5157 7.4615L7.49195 8.25556C7.39521 8.33122 7.32374 8.4345 7.28702 8.55169C7.2503 8.66889 7.25006 8.79448 7.28633 8.91181L7.66476 10.1565C7.83539 10.7165 7.19883 11.1671 6.73945 10.8128L5.82726 10.104C5.72471 10.0242 5.59847 9.98084 5.46851 9.98084C5.33856 9.98084 5.21232 10.0242 5.10976 10.104L4.19758 10.8106C3.7382 11.1671 3.10383 10.7165 3.27226 10.1565L3.6507 8.90963C3.68649 8.79259 3.686 8.66747 3.64929 8.55072C3.61259 8.43397 3.54139 8.33107 3.44508 8.25556L2.42133 7.4615C1.9707 7.1115 2.21351 6.38306 2.78008 6.38306H3.9832C4.11072 6.38267 4.23472 6.34117 4.33678 6.26472C4.43884 6.18828 4.51353 6.08095 4.54976 5.95869L4.90414 4.79931ZM4.90414 13.5493C4.94135 13.4287 5.01624 13.3232 5.1178 13.2482C5.21937 13.1733 5.34228 13.1328 5.46851 13.1328C5.59475 13.1328 5.71766 13.1733 5.81923 13.2482C5.92079 13.3232 5.99567 13.4287 6.03289 13.5493L6.38726 14.7087C6.46383 14.9603 6.69351 15.1331 6.95164 15.1331H8.15695C8.72352 15.1331 8.96633 15.8615 8.5157 16.2115L7.49195 17.0056C7.39521 17.0812 7.32374 17.1845 7.28702 17.3017C7.2503 17.4189 7.25006 17.5445 7.28633 17.6618L7.66476 18.9065C7.83539 19.4643 7.19883 19.9171 6.73945 19.5628L5.82726 18.854C5.72471 18.7742 5.59847 18.7308 5.46851 18.7308C5.33856 18.7308 5.21232 18.7742 5.10976 18.854L4.19758 19.5606C3.7382 19.9171 3.10383 19.4665 3.27226 18.9065L3.6507 17.6596C3.68649 17.5426 3.686 17.4175 3.64929 17.3007C3.61259 17.184 3.54139 17.0811 3.44508 17.0056L2.42133 16.2115C1.9707 15.8615 2.21351 15.1331 2.78008 15.1331H3.9832C4.11072 15.1327 4.23472 15.0912 4.33678 15.0147C4.43884 14.9383 4.51353 14.831 4.54976 14.7087L4.90414 13.5493ZM4.90414 22.2993C4.94135 22.1787 5.01624 22.0732 5.1178 21.9982C5.21937 21.9233 5.34228 21.8828 5.46851 21.8828C5.59475 21.8828 5.71766 21.9233 5.81923 21.9982C5.92079 22.0732 5.99567 22.1787 6.03289 22.2993L6.38726 23.4587C6.46383 23.7103 6.69351 23.8831 6.95164 23.8831H8.15695C8.72352 23.8831 8.96633 24.6115 8.5157 24.9615L7.49195 25.7556C7.39521 25.8312 7.32374 25.9345 7.28702 26.0517C7.2503 26.1689 7.25006 26.2945 7.28633 26.4118L7.66476 27.6565C7.83539 28.2143 7.19883 28.6671 6.73945 28.3128L5.82726 27.604C5.72471 27.5242 5.59847 27.4808 5.46851 27.4808C5.33856 27.4808 5.21232 27.5242 5.10976 27.604L4.19758 28.3106C3.7382 28.6671 3.10383 28.2165 3.27226 27.6565L3.6507 26.4096C3.68649 26.2926 3.686 26.1675 3.64929 26.0507C3.61259 25.934 3.54139 25.8311 3.44508 25.7556L2.42133 24.9615C1.9707 24.6115 2.21351 23.8831 2.78008 23.8831H3.9832C4.11072 23.8827 4.23472 23.8412 4.33678 23.7647C4.43884 23.6883 4.51353 23.581 4.54976 23.4587L4.90414 22.2993Z" fill="white"/>
</svg>
