<svg xmlns="http://www.w3.org/2000/svg" xmlns:xlink="http://www.w3.org/1999/xlink" width="176.877" height="21.689" viewBox="0 0 176.877 21.689">
  <defs>
    <clipPath id="clip-path">
      <path id="Trazado_8917" data-name="Trazado 8917" d="M0,0H176.877V21.689H0Z" fill="none"/>
    </clipPath>
  </defs>
  <g id="Enmascarar_grupo_3265" data-name="Enmascarar grupo 3265" clip-path="url(#clip-path)">
    <path id="Trazado_8909" data-name="Trazado 8909" d="M22.155,9.866q3.041,1.321,1.825,4.887A8.231,8.231,0,0,1,20.431,19.2a9.54,9.54,0,0,1-2.786,1.161,15,15,0,0,1-3.483.357H0l.165-.486a2.308,2.308,0,0,0,.893-.395,1.538,1.538,0,0,0,.456-.713L7.489,1.594A.923.923,0,0,0,7.52.88,1.011,1.011,0,0,0,6.9.486L7.061,0H21.085A12.682,12.682,0,0,1,24.23.3a3.719,3.719,0,0,1,1.8,1.032q1.345,1.442.419,4.159a7.1,7.1,0,0,1-4.3,4.371M6.658,17.3h7.68a7.3,7.3,0,0,0,3.283-.592,3.762,3.762,0,0,0,1.838-2.231q.522-1.533-.317-2.231a4.862,4.862,0,0,0-2.879-.592H8.583ZM9.747,8.242h7.938a5.409,5.409,0,0,0,2.7-.531,3.362,3.362,0,0,0,1.446-1.882q.445-1.305-.125-1.859a3.566,3.566,0,0,0-2.376-.554H11.391Z" fill="#fff"/>
    <path id="Trazado_8910" data-name="Trazado 8910" d="M286.8,34.409q4.055,0,6.056,2.064,2.387,2.489.871,6.936a12.34,12.34,0,0,1-5.506,6.663,13.978,13.978,0,0,1-7.432,2.064q-4.056,0-6.026-2.064-2.4-2.489-.933-6.8a12.386,12.386,0,0,1,5.568-6.8,14.49,14.49,0,0,1,7.4-2.064m-1.082,3.218a7.894,7.894,0,0,0-4.86,1.685,8.23,8.23,0,0,0-2.885,3.961,4.442,4.442,0,0,0,.19,3.946,4.058,4.058,0,0,0,3.722,1.7,7.872,7.872,0,0,0,4.865-1.7,8.033,8.033,0,0,0,2.854-3.87,4.481,4.481,0,0,0-.159-4.037,4.217,4.217,0,0,0-3.727-1.685" transform="translate(-246.629 -31.055)" fill="#fff"/>
    <path id="Trazado_8911" data-name="Trazado 8911" d="M481.983,53.6l4.738-13.9a.922.922,0,0,0,.031-.713,1.059,1.059,0,0,0-.619-.41l.145-.425h9.972a10.679,10.679,0,0,1,4.639.774,4.261,4.261,0,0,1,2.4,3.612,9.923,9.923,0,0,1-.628,4.113,12.475,12.475,0,0,1-4.846,6.6,10.641,10.641,0,0,1-3.249,1.449,16.6,16.6,0,0,1-4.107.448h-9.972l.145-.425a2.137,2.137,0,0,0,.886-.395,1.6,1.6,0,0,0,.468-.729m4.59-1.533h4.341a7.8,7.8,0,0,0,4.806-1.366,8.213,8.213,0,0,0,2.793-4.052q.9-2.626-.03-4.052a2.593,2.593,0,0,0-1.376-1.04,7.712,7.712,0,0,0-2.5-.326h-4.341Z" transform="translate(-433.645 -34.427)" fill="#fff"/>
    <path id="Trazado_8912" data-name="Trazado 8912" d="M752.67,47.685,750.655,53.6a.953.953,0,0,0-.033.722,1.024,1.024,0,0,0,.617.418l-.14.41h-6.01l.14-.41a2.261,2.261,0,0,0,.9-.4,1.619,1.619,0,0,0,.464-.737l2.014-5.911-2.677-6.931a6.188,6.188,0,0,0-.813-1.6,1.8,1.8,0,0,0-1.008-.584l.145-.425h7.66l-.145.425a1.624,1.624,0,0,0-1.3.925,2.489,2.489,0,0,0,.259,1.335l1.3,3.419,3.576-3.419a5.441,5.441,0,0,0,1.173-1.35q.217-.637-.661-.91l.13-.425h7.284l-.145.425a3.96,3.96,0,0,0-1.406.584,16.408,16.408,0,0,0-1.9,1.6Z" transform="translate(-671.566 -34.427)" fill="#fff"/>
    <path id="Trazado_8913" data-name="Trazado 8913" d="M911.531,11.049l-3.98,2.52-1.893,5.555a.921.921,0,0,0-.026.721.958.958,0,0,0,.619.387l-.166.486H899.62l.166-.486a2.309,2.309,0,0,0,.894-.395,1.54,1.54,0,0,0,.456-.713l5.98-17.546a.9.9,0,0,0,.026-.7,1.01,1.01,0,0,0-.625-.395L906.681,0h6.466l-.165.486a2.123,2.123,0,0,0-.891.387,1.546,1.546,0,0,0-.453.705L909.166,8.83l10.9-6.963q.757-.486.856-.774.15-.44-.673-.607L920.418,0h8.469l-.166.486a3.4,3.4,0,0,0-.842.243q-.274.137-1.672,1.032l-1.5.971L915.733,8.39,920.444,18a8.192,8.192,0,0,0,1.014,1.723,1.832,1.832,0,0,0,1.064.508l-.166.486h-8.1l.165-.486q.862-.167,1-.577a2.348,2.348,0,0,0-.346-1.123Z" transform="translate(-811.922)" fill="#fd0d1b"/>
    <path id="Trazado_8914" data-name="Trazado 8914" d="M1164.93,34.409q4.055,0,6.056,2.064,2.387,2.489.871,6.936a12.341,12.341,0,0,1-5.506,6.663,13.98,13.98,0,0,1-7.433,2.064q-4.056,0-6.026-2.064-2.4-2.489-.933-6.8a12.385,12.385,0,0,1,5.568-6.8,14.489,14.489,0,0,1,7.4-2.064m-1.082,3.218a7.894,7.894,0,0,0-4.86,1.685,8.232,8.232,0,0,0-2.885,3.961,4.441,4.441,0,0,0,.19,3.946,4.058,4.058,0,0,0,3.722,1.7,7.872,7.872,0,0,0,4.865-1.7,8.033,8.033,0,0,0,2.854-3.87,4.481,4.481,0,0,0-.159-4.037,4.216,4.216,0,0,0-3.727-1.685" transform="translate(-1039.16 -31.055)" fill="#fd0d1b"/>
    <path id="Trazado_8915" data-name="Trazado 8915" d="M1366.036,48.163l-1.848,5.421a.945.945,0,0,0-.033.72,1.025,1.025,0,0,0,.617.416l-.145.425h-6.01l.144-.425a2.136,2.136,0,0,0,.886-.395,1.6,1.6,0,0,0,.468-.729l4.738-13.9a.923.923,0,0,0,.031-.713,1.059,1.059,0,0,0-.619-.41l.145-.425h11.14a17.383,17.383,0,0,1,3.234.22,3.987,3.987,0,0,1,1.762.8q1.428,1.2.5,3.916a6.6,6.6,0,0,1-2.23,3.225,10.05,10.05,0,0,1-4.222,1.677l1.69,4.483a6.245,6.245,0,0,0,.828,1.689,1.659,1.659,0,0,0,1,.568l-.145.425h-7.149l.145-.425q.862-.212,1.023-.681a1.638,1.638,0,0,0-.141-1.015l-1.739-4.861Zm1.05-3.081h6.132a6.121,6.121,0,0,0,2.168-.3,2.48,2.48,0,0,0,1.495-1.624q.367-1.078-.148-1.5a3.8,3.8,0,0,0-2.2-.425H1368.4Z" transform="translate(-1226.174 -34.427)" fill="#fd0d1b"/>
    <path id="Trazado_8916" data-name="Trazado 8916" d="M1585.653,38.927l-1.412,4.144h10.791a1.426,1.426,0,0,0,.792-.209,2.4,2.4,0,0,0,.662-.762h.425l-1.712,5.024h-.425a1.048,1.048,0,0,0-.138-.751.814.814,0,0,0-.653-.22h-15.831l.145-.425a2.14,2.14,0,0,0,.886-.395,1.6,1.6,0,0,0,.468-.729l4.738-13.9a.922.922,0,0,0,.031-.713,1.057,1.057,0,0,0-.619-.41l.145-.425h15.36a1.44,1.44,0,0,0,.808-.212,2.42,2.42,0,0,0,.661-.759h.41l-1.712,5.024h-.41a1.091,1.091,0,0,0-.142-.762.85.85,0,0,0-.665-.209h-10.321l-1.273,3.734h6.405a1.411,1.411,0,0,0,.793-.213,2.569,2.569,0,0,0,.676-.759h.41l-1.671,4.9h-.41a1.115,1.115,0,0,0-.145-.755.824.824,0,0,0-.662-.217Z" transform="translate(-1424.308 -25.434)" fill="#fd0d1b"/>
  </g>
</svg>
