<svg xmlns="http://www.w3.org/2000/svg" width="28.453" height="36.834" viewBox="0 0 28.453 36.834">
  <g id="icons_Q2" data-name="icons Q2" transform="translate(0 0)">
    <path id="Trazado_9048" data-name="Trazado 9048" d="M27.944,16.254a4.69,4.69,0,1,1-4.69,4.69,4.534,4.534,0,0,1,4.69-4.69m0-6.254A10.944,10.944,0,1,0,38.888,20.944,10.944,10.944,0,0,0,27.944,10Z" transform="translate(-13.718 -8.391)" fill="#bc2026"/>
    <path id="Trazado_9049" data-name="Trazado 9049" d="M21.226,5.347c6.193,0,9.056,5.021,9.056,11.716s-5.374,3.338-9.056,7.1c-3.682-3.766-9.075-.828-9.075-7.1S15.034,5.347,21.226,5.347m0-3.347C12.942,2,7,8.778,7,17.063s9.624,17.825,13.055,21.256a1.59,1.59,0,0,0,2.343,0c3.431-3.431,13.055-12.8,13.055-21.256S29.511,2,21.226,2Z" transform="translate(-7 -2)" fill="#bc2026"/>
  </g>
</svg>
