<svg width="158" height="158" viewBox="0 0 158 158" fill="none" xmlns="http://www.w3.org/2000/svg">
<path d="M131.996 72.4166H26.0042C22.5501 72.4166 19.75 75.2167 19.75 78.6708V79.3291C19.75 82.7832 22.5501 85.5833 26.0042 85.5833H131.996C135.45 85.5833 138.25 82.7832 138.25 79.3291V78.6708C138.25 75.2167 135.45 72.4166 131.996 72.4166Z" fill="white"/>
<path d="M131.996 105.333H26.0042C22.5501 105.333 19.75 108.133 19.75 111.588V112.246C19.75 115.7 22.5501 118.5 26.0042 118.5H131.996C135.45 118.5 138.25 115.7 138.25 112.246V111.588C138.25 108.133 135.45 105.333 131.996 105.333Z" fill="white"/>
<path d="M131.996 39.5H26.0042C22.5501 39.5 19.75 42.3001 19.75 45.7542V46.4125C19.75 49.8666 22.5501 52.6667 26.0042 52.6667H131.996C135.45 52.6667 138.25 49.8666 138.25 46.4125V45.7542C138.25 42.3001 135.45 39.5 131.996 39.5Z" fill="white"/>
</svg>
