<svg width="35" height="35" viewBox="0 0 35 35" fill="none" xmlns="http://www.w3.org/2000/svg">
<path d="M20.4165 4.375V10.2083C20.4165 10.5951 20.5701 10.966 20.8436 11.2395C21.1171 11.513 21.4881 11.6667 21.8748 11.6667H27.7082" stroke="white" stroke-width="2" stroke-linecap="round" stroke-linejoin="round"/>
<path d="M13.1248 24.7917H21.8748M13.1248 18.9583H21.8748M24.7915 30.625H10.2082C9.43462 30.625 8.69276 30.3177 8.14578 29.7707C7.59879 29.2237 7.2915 28.4819 7.2915 27.7083V7.29167C7.2915 6.51812 7.59879 5.77625 8.14578 5.22927C8.69276 4.68229 9.43462 4.375 10.2082 4.375H20.4165L27.7082 11.6667V27.7083C27.7082 28.4819 27.4009 29.2237 26.8539 29.7707C26.3069 30.3177 25.5651 30.625 24.7915 30.625Z" stroke="white" stroke-width="2" stroke-linecap="round" stroke-linejoin="round"/>
</svg>
