<svg xmlns="http://www.w3.org/2000/svg" width="64.922" height="45.14" viewBox="0 0 64.922 45.14">
    <g id="user-line" transform="translate(3 -11.2)">
    <g id="noun-mail-4527933" transform="translate(-144.14 -102.55)">
        <path id="Trazado_8978" data-name="Trazado 8978" d="M141.14,113.75v43.442h54.577V113.75Zm44.928,4.573-17.639,12.072L150.79,118.323Zm-40.356,34.3V120.335l22.715,15.605,22.715-15.605v32.284h-45.43Z" transform="translate(0)" fill="#bc2026"/>
        <path id="Trazado_8979" data-name="Trazado 8979" d="M20.25,29.25H37.469v3.363H20.25Z" transform="translate(160.936 123.665)" fill="#bc2026"/>
        <path id="Trazado_8979_-_Contorno" data-name="Trazado 8979 - Contorno" d="M2.863,11.863v3.363H20.082V11.863H2.863M.25,9.25H22.7v8.589H.25Z" transform="translate(178.323 141.051)" fill="#fff"/>
        <path id="Trazado_8980" data-name="Trazado 8980" d="M20.25,24.75H42.513v3.363H20.25Z" transform="translate(160.936 120.307)" fill="#bc2026"/>
        <path id="Trazado_8980_-_Contorno" data-name="Trazado 8980 - Contorno" d="M2.863,7.363v3.363H25.126V7.363H2.863M.25,4.75H27.739v8.589H.25Z" transform="translate(178.323 137.694)" fill="#fff"/>
        <path id="Trazado_8981" data-name="Trazado 8981" d="M20.25,20.25H42.513v3.363H20.25Z" transform="translate(160.936 116.951)" fill="#bc2026"/>
        <path id="Trazado_8981_-_Contorno" data-name="Trazado 8981 - Contorno" d="M2.863,2.863V6.226H25.126V2.863H2.863M.25.25H27.739V8.839H.25Z" transform="translate(178.323 134.338)" fill="#fff"/>
    </g>
    </g>
</svg>