<svg xmlns="http://www.w3.org/2000/svg" width="58.016" height="47.886" viewBox="0 0 58.016 47.886">
  <g id="user-line" transform="translate(-0.196 -8.872)">
    <path id="Icon_feather-twitter" data-name="Icon feather-twitter" d="M56.516,4.51a27.258,27.258,0,0,1-7.852,3.826,11.2,11.2,0,0,0-19.656,7.5v2.5A26.658,26.658,0,0,1,6.5,7.011s-10,22.507,12.5,32.509a29.109,29.109,0,0,1-17.505,5c22.507,12.5,50.015,0,50.015-28.758a11.253,11.253,0,0,0-.2-2.076,19.306,19.306,0,0,0,5.2-9.178Z" transform="translate(0.196 5.9)" fill="none" stroke="#bc2026" stroke-linecap="round" stroke-linejoin="round" stroke-width="3"/>
  </g>
</svg>