<svg xmlns="http://www.w3.org/2000/svg" width="48.408" height="55.855" viewBox="0 0 48.408 55.855">
    <g id="user-line" transform="translate(-5 -3)">
        <path id="Trazado_8965" data-name="Trazado 8965" d="M24.033,29.066A13.033,13.033,0,1,0,11,16.033,13.033,13.033,0,0,0,24.033,29.066Zm0-22.342a9.309,9.309,0,1,1-9.309,9.309A9.309,9.309,0,0,1,24.033,6.724Z" transform="translate(5.171)" fill="#bc2026"/>
        <path id="Trazado_8966" data-name="Trazado 8966" d="M52.421,29A31.949,31.949,0,0,0,6.005,29,3.724,3.724,0,0,0,5,31.546v9.793a3.724,3.724,0,0,0,3.724,3.724H49.684a3.724,3.724,0,0,0,3.724-3.724V31.546A3.724,3.724,0,0,0,52.421,29ZM49.684,41.339H8.724V31.527a28.244,28.244,0,0,1,40.961,0Z" transform="translate(0 13.793)" fill="#bc2026"/>
    </g>
</svg>