<svg xmlns="http://www.w3.org/2000/svg" width="54.384" height="54.372" viewBox="0 0 54.384 54.372">
    <g id="user-line" transform="translate(-1.808 -4.999)">
        <path id="Icon_awesome-instagram" data-name="Icon awesome-instagram" d="M27.193,15.483a13.94,13.94,0,1,0,13.94,13.94A13.918,13.918,0,0,0,27.193,15.483Zm0,23a9.063,9.063,0,1,1,9.063-9.063,9.079,9.079,0,0,1-9.063,9.063ZM44.955,14.913A3.252,3.252,0,1,1,41.7,11.662,3.244,3.244,0,0,1,44.955,14.913Zm9.233,3.3C53.982,13.858,52.987,10,49.8,6.821S42.759,2.647,38.4,2.429c-4.489-.255-17.944-.255-22.433,0-4.343.206-8.2,1.2-11.392,4.38S.4,13.846.186,18.2c-.255,4.489-.255,17.944,0,22.433.206,4.356,1.2,8.214,4.392,11.392S11.615,56.2,15.97,56.419c4.489.255,17.944.255,22.433,0,4.356-.206,8.214-1.2,11.392-4.392s4.174-7.037,4.392-11.392C54.443,36.145,54.443,22.7,54.188,18.213Zm-5.8,27.238a9.176,9.176,0,0,1-5.168,5.168c-3.579,1.42-12.072,1.092-16.027,1.092s-16.027-1.092-16.027-1.092S6.956,47.841,6,45.451c-1.42-3.579-1.092-12.072-1.092-16.027S4.59,16.964,6,13.4a9.176,9.176,0,0,1,5.168-5.168c3.579-1.42,12.072-1.092,16.027-1.092s12.46-.315,16.027,1.092A9.176,9.176,0,0,1,48.388,13.4c1.42,3.579,1.092,12.072,1.092,16.027S49.808,41.884,48.388,45.451Z" transform="translate(1.813 2.762)" fill="#bc2026"/>
    </g>
</svg>