<svg xmlns="http://www.w3.org/2000/svg" width="50.513" height="51.647" viewBox="0 0 50.513 51.647">
    <g id="star-review" transform="translate(-1.44 0.051)">
        <path id="Trazado_8967" data-name="Trazado 8967" d="M20.25,29.25H35.612v3H20.25Z" transform="translate(11.841 16.36)" fill="#bc2026"/>
        <path id="Trazado_8968" data-name="Trazado 8968" d="M20.25,24.75H40.112v3H20.25Z" transform="translate(11.841 13.387)" fill="#bc2026"/>
        <path id="Trazado_8969" data-name="Trazado 8969" d="M20.25,20.25H40.112v3H20.25Z" transform="translate(11.841 10.553)" fill="#bc2026"/>
        <path id="Trazado_8970" data-name="Trazado 8970" d="M37.868,19.251l-8.6-17-8.6,17L1.44,21.978,15.354,35.212,12.069,53.9l13.418-6.881V42.848l-8.4,4.307,1.988-11.318.336-1.913-1.423-1.353L9.565,24.553,21.212,22.9l1.966-.279.881-1.74,5.209-10.3,5.208,10.3.881,1.74,1.966.279,14.092,2,.539-3.655-14.085-2Z" transform="translate(0 -2.301)" fill="#bc2026"/>
    </g>
</svg>