<svg xmlns="http://www.w3.org/2000/svg" width="55.55" height="39.926" viewBox="0 0 55.55 39.926">
  <g id="Grupo_3736" data-name="Grupo 3736" transform="translate(-1246.36 -372.977)">
    <path id="Trazado_8829" data-name="Trazado 8829" d="M52.949,11.78A6.64,6.64,0,0,0,48.315,7C44.207,6,27.774,6,27.774,6S11.341,6,7.233,7.1A6.64,6.64,0,0,0,2.6,11.876,69.267,69.267,0,0,0,1.5,24.511,69.267,69.267,0,0,0,2.6,37.242a6.64,6.64,0,0,0,4.634,4.586c4.108,1.1,20.541,1.1,20.541,1.1s16.433,0,20.541-1.1a6.64,6.64,0,0,0,4.634-4.777,69.266,69.266,0,0,0,1.1-12.54,69.266,69.266,0,0,0-1.1-12.731Z" transform="translate(1246.361 368.477)" fill="none" stroke="#bc2026" stroke-linecap="round" stroke-linejoin="round" stroke-width="3"/>
    <path id="Trazado_8830" data-name="Trazado 8830" d="M14.625,27.675,27.774,20.2,14.625,12.72Z" transform="translate(1254.936 372.742)" fill="none" stroke="#bc2026" stroke-linecap="round" stroke-linejoin="round" stroke-width="3"/>
  </g>
</svg>