<svg xmlns="http://www.w3.org/2000/svg" width="55.859" height="48.396" viewBox="0 0 55.859 48.396">
    <g id="noun-birthday-975694" transform="translate(-87.5 -24.964)">
        <path id="Trazado_8971" data-name="Trazado 8971" d="M142.428,214.473H138.7V193.06a.931.931,0,0,0-.931-.931h-7.448v-7.448a.931.931,0,0,0-.931-.931h-3.724a.931.931,0,0,0-.931.931v7.448h-6.517v-7.448a.931.931,0,0,0-.931-.931h-3.724a.931.931,0,0,0-.931.931v7.448H106.12v-7.448a.931.931,0,0,0-.931-.931h-3.724a.931.931,0,0,0-.931.931v7.448H93.086a.931.931,0,0,0-.931.931v21.413H88.431a.931.931,0,0,0-.931.931v5.586a.931.931,0,0,0,.931.931h54a.931.931,0,0,0,.931-.931V215.4A.931.931,0,0,0,142.428,214.473ZM126.6,185.612h1.862v6.517H126.6Zm-12.1,0h1.862v6.517H114.5Zm-12.1,0h1.862v6.517H102.4Zm-.931,8.379h35.378v5.2L133.5,202.53a1.908,1.908,0,0,1-2.633,0l-2.953-2.953a1.864,1.864,0,0,0-2.633,0l-2.953,2.953a1.908,1.908,0,0,1-2.633,0l-2.953-2.953a1.864,1.864,0,0,0-2.633,0l-2.953,2.953a1.908,1.908,0,0,1-2.633,0l-2.953-2.953a1.864,1.864,0,0,0-2.633,0l-2.953,2.953a1.908,1.908,0,0,1-2.633,0l-3.338-3.338v-5.2Zm-7.448,7.833,2.022,2.022a3.812,3.812,0,0,0,5.265,0l2.953-2.953,2.953,2.953a3.812,3.812,0,0,0,5.265,0l2.953-2.953,2.953,2.953a3.812,3.812,0,0,0,5.265,0l2.953-2.953,2.953,2.953a3.725,3.725,0,0,0,5.266,0l2.022-2.022v12.649H94.017Zm47.48,18.235H89.362v-3.724H141.5Z" transform="translate(0 -148.561)" fill="#bc2026"/>
        <path id="Trazado_8972" data-name="Trazado 8972" d="M212.084,87.96c-.213.25-2.084,2.495-2.084,4.328,0,2.088,1.226,3.724,2.793,3.724s2.793-1.636,2.793-3.724c0-1.833-1.871-4.078-2.084-4.328A.963.963,0,0,0,212.084,87.96Zm.709,6.19c-.38,0-.931-.725-.931-1.862a4.839,4.839,0,0,1,.929-2.168,4.884,4.884,0,0,1,.933,2.168C213.724,93.425,213.173,94.15,212.793,94.15Z" transform="translate(-109.466 -62.685)" fill="#bc2026"/>
        <path id="Trazado_8973" data-name="Trazado 8973" d="M326.542,96.017c1.567,0,2.793-1.636,2.793-3.724,0-1.833-1.871-4.078-2.084-4.328a.963.963,0,0,0-1.416,0c-.214.25-2.086,2.495-2.086,4.328,0,2.088,1.226,3.724,2.793,3.724Zm0-5.892a4.884,4.884,0,0,1,.933,2.168c0,1.137-.551,1.862-.931,1.862s-.931-.725-.931-1.862A4.839,4.839,0,0,1,326.54,90.125Z" transform="translate(-211.112 -62.691)" fill="#bc2026"/>
        <path id="Trazado_8974" data-name="Trazado 8974" d="M440.292,96.017c1.567,0,2.793-1.636,2.793-3.724,0-1.833-1.871-4.078-2.084-4.328a.963.963,0,0,0-1.416,0c-.214.25-2.086,2.495-2.086,4.328,0,2.088,1.226,3.724,2.793,3.724Zm0-5.892a4.884,4.884,0,0,1,.933,2.168c0,1.137-.551,1.862-.931,1.862s-.931-.725-.931-1.862A4.838,4.838,0,0,1,440.29,90.125Z" transform="translate(-312.76 -62.691)" fill="#bc2026"/>
    </g>
</svg>