<svg xmlns="http://www.w3.org/2000/svg" width="19.912" height="16.384" viewBox="0 0 19.912 16.384">
  <g id="noun-portfolio-1266847" transform="translate(-73.554 -67.306)">
    <path id="Trazado_8956" data-name="Trazado 8956" d="M110.166,150.24H92.745A1.246,1.246,0,0,1,91.5,149V137.766a1.246,1.246,0,0,1,1.244-1.244h17.421a1.246,1.246,0,0,1,1.244,1.244V149A1.246,1.246,0,0,1,110.166,150.24Zm-17.42-12.888a.415.415,0,0,0-.415.415V149a.415.415,0,0,0,.415.415h17.421a.415.415,0,0,0,.415-.415V137.766a.415.415,0,0,0-.415-.415Z" transform="translate(-17.947 -66.55)" fill="#fff"/>
    <path id="Trazado_8957" data-name="Trazado 8957" d="M268.121,70.8H261.29V68.55a1.246,1.246,0,0,1,1.244-1.244h4.343a1.246,1.246,0,0,1,1.244,1.244Zm-6-.83h5.172V68.55a.415.415,0,0,0-.415-.415h-4.343a.415.415,0,0,0-.415.415Z" transform="translate(-181.197)" fill="#fff"/>
    <path id="Trazado_8958" data-name="Trazado 8958" d="M96.539,232.409H94.4a.415.415,0,0,1-.331-.164l-2.426-3.2a.415.415,0,1,1,.661-.5l2.3,3.034h1.93a.415.415,0,1,1,0,.83Z" transform="translate(-18.006 -154.871)" fill="#fff"/>
    <path id="Trazado_8959" data-name="Trazado 8959" d="M471.032,232.412H468.9a.415.415,0,0,1,0-.83h1.926l2.306-3.034a.415.415,0,0,1,.661.5l-2.43,3.2a.415.415,0,0,1-.33.164Z" transform="translate(-380.411 -154.874)" fill="#fff"/>
    <path id="Trazado_8960" data-name="Trazado 8960" d="M270.092,312.24h-5.807a.415.415,0,1,1,0-.83h5.807a.415.415,0,0,1,0,.83Z" transform="translate(-183.677 -234.702)" fill="#fff"/>
    <path id="Trazado_8961" data-name="Trazado 8961" d="M212.1,282.422h-1.244a.83.83,0,0,1-.83-.83v-1.659a.83.83,0,0,1,.83-.83H212.1a.83.83,0,0,1,.83.83v1.659A.83.83,0,0,1,212.1,282.422Zm-1.244-2.489v1.659H212.1v-1.658Zm1.244,0h0Z" transform="translate(-131.903 -203.641)" fill="#fff"/>
    <path id="Trazado_8962" data-name="Trazado 8962" d="M416.716,282.422h-1.244a.83.83,0,0,1-.83-.83v-1.659a.83.83,0,0,1,.83-.83h1.244a.83.83,0,0,1,.83.83v1.659A.83.83,0,0,1,416.716,282.422Zm-1.244-2.489v1.659h1.244v-1.658Zm1.244,0h0Z" transform="translate(-328.642 -203.641)" fill="#fff"/>
  </g>
</svg>
