<svg xmlns="http://www.w3.org/2000/svg" width="19.286" height="18.631" viewBox="0 0 19.286 18.631">
  <g id="noun-star-4714328" transform="translate(-74.077 -16.99)">
    <path id="Trazado_9066" data-name="Trazado 9066" d="M202.852,141.772a.659.659,0,0,0,.476-.248.676.676,0,0,0,.139-.523l-.864-5.8,4.121-4.328h0a.675.675,0,0,0,.151-.678.663.663,0,0,0-.525-.448l-5.7-.949-2.8-5.306a.657.657,0,0,0-1.171.007l-2.657,5.2-5.856,1.045h0a.665.665,0,0,0-.516.459.676.676,0,0,0,.165.675l4.069,4.157-.827,5.966h0a.673.673,0,0,0,.27.635.655.655,0,0,0,.681.054l5.175-2.624,5.343,2.631a.656.656,0,0,0,.322.067Zm-.878-1.831-4.509-2.216a.654.654,0,0,0-.586,0l-4.333,2.209.688-5.032a.675.675,0,0,0-.183-.563l-3.411-3.491,4.941-.889a.661.661,0,0,0,.468-.348l2.225-4.365,2.364,4.484h0a.661.661,0,0,0,.476.341l4.78.8-3.477,3.654h0a.675.675,0,0,0-.176.563Z" transform="translate(-113.546 -106.152)" fill="#f2f9fa"/>
  </g>
</svg>
