<svg width="35" height="35" viewBox="0 0 35 35" fill="none" xmlns="http://www.w3.org/2000/svg">
<path d="M17.5 0C15.5993 0 14.1355 1.58585 14.1355 3.48206C14.1355 5.30845 14.1227 6.90643 14.1227 6.90643H10.7431C10.6795 6.90643 10.618 6.91346 10.5573 6.92353H9.61731V10.2069H25.3827V6.92353H24.4427C24.382 6.91346 24.3205 6.90643 24.2569 6.90643H20.8774C20.8774 6.90643 20.9158 5.45988 20.9158 3.49274C20.9158 1.66632 19.4007 0 17.5 0ZM5.10986 3.3304V35H29.8901V3.3304H22.0395V5.6247H27.6215V32.7014H7.38069V5.6247H12.9605V3.3304H5.10986ZM17.5 3.3731C18.1227 3.3731 18.6258 3.87418 18.6258 4.49461C18.6258 5.11618 18.1227 5.61826 17.5 5.61826C16.8773 5.61826 16.3742 5.11615 16.3742 4.49461C16.3742 3.87421 16.8773 3.3731 17.5 3.3731ZM9.61731 12.4329V13.5565H10.7431V12.4329H9.61731ZM12.9968 12.4542V13.5779H25.3827V12.4542H12.9968ZM9.61731 16.6711V17.7948H10.7431V16.6711H9.61731ZM12.9968 16.6925V17.8183H25.3827V16.6925H12.9968ZM9.61731 20.9094V22.0331H10.7431V20.9094H9.61731ZM12.9968 20.9329V22.0566H25.3827V20.9329H12.9968ZM9.61731 25.1498V26.2735H10.7431V25.1498H9.61731ZM12.9968 25.1733V26.297H25.3827V25.1733H12.9968ZM9.61731 29.3881V30.5118H10.7431V29.3881H9.61731ZM12.9968 29.4116V30.5353H25.3827V29.4116H12.9968Z" fill="white"/>
</svg>
