<svg width="35" height="35" viewBox="0 0 35 35" fill="none" xmlns="http://www.w3.org/2000/svg">
<g clip-path="url(#clip0_820_1110)">
<path d="M33.0554 10.0527C33.0583 9.67028 32.9543 9.29466 32.755 8.96826C32.5557 8.64185 32.2692 8.37765 31.9277 8.20547C31.604 8.03165 31.2377 7.9531 30.8712 7.97891C30.5047 8.00472 30.153 8.13384 29.8568 8.35131L25.2777 11.2777V7.7777C25.2777 7.262 25.0728 6.76742 24.7082 6.40277C24.3435 6.03811 23.8489 5.83325 23.3332 5.83325H5.83323C4.80183 5.83325 3.81267 6.24297 3.08337 6.97228C2.35406 7.70159 1.94434 8.69074 1.94434 9.72214V25.2777C1.94434 26.3091 2.35406 27.2982 3.08337 28.0276C3.81267 28.7569 4.80183 29.1666 5.83323 29.1666H23.3332C23.8489 29.1666 24.3435 28.9617 24.7082 28.5971C25.0728 28.2324 25.2777 27.7378 25.2777 27.2221V23.7221L29.7888 26.6388C30.0906 26.8699 30.4516 27.0108 30.8301 27.0452C31.2086 27.0796 31.5892 27.0061 31.9277 26.8333C32.2752 26.6582 32.5657 26.3879 32.7654 26.0539C32.9651 25.72 33.0657 25.3361 33.0554 24.9471V10.0527ZM31.0429 25.0541C30.9846 25.0541 30.936 25.0541 30.8582 24.9958L23.3332 20.193V27.2221H5.83323C5.31753 27.2221 4.82295 27.0173 4.4583 26.6526C4.09364 26.288 3.88878 25.7934 3.88878 25.2777V9.72214C3.88878 9.20644 4.09364 8.71187 4.4583 8.34721C4.82295 7.98256 5.31753 7.7777 5.83323 7.7777H23.3332V14.8069L30.9166 9.94575C30.9349 9.93232 30.957 9.92508 30.9798 9.92508C31.0025 9.92508 31.0246 9.93232 31.0429 9.94575C31.0642 9.95399 31.0823 9.96881 31.0945 9.98805C31.1068 10.0073 31.1125 10.0299 31.111 10.0527V24.9471C31.1125 24.9699 31.1068 24.9925 31.0945 25.0118C31.0823 25.031 31.0642 25.0458 31.0429 25.0541Z" fill="white"/>
</g>
<defs>
<clipPath id="clip0_820_1110">
<rect width="35" height="35" fill="white"/>
</clipPath>
</defs>
</svg>
