<svg id="Grupo_3549" data-name="Grupo 3549" xmlns="http://www.w3.org/2000/svg" width="29.678" height="43.521" viewBox="0 0 29.678 43.521">
  <g id="Grupo_3549-2" data-name="Grupo 3549" transform="translate(2.562 23.001)">
    <path id="Trazado_8942" data-name="Trazado 8942" d="M4063.558,376.524l-3.629,9.4,5.064-2.3,2.223,4.978,3.366-9.585" transform="translate(-4059.928 -375.793)" fill="none" stroke="#373933" stroke-width="2.5"/>
    <path id="Trazado_8943" data-name="Trazado 8943" d="M3.541,0,0,10.944l4.2-1.6L6.48,13.325,10.566,2.492" transform="translate(7.681 6.792) rotate(-40)" fill="none" stroke="#373933" stroke-width="2.5"/>
  </g>
  <g id="noun-warranty-85334">
    <path id="Trazado_8945" data-name="Trazado 8945" d="M65.187,67.945l4.387,4.671,5.543-9.035" transform="translate(-56.701 -54.646)" fill="none" stroke="red" stroke-width="2.5"/>
    <g id="Trazado_8946" data-name="Trazado 8946" fill="none">
      <path d="M13.452,0A13.452,13.452,0,1,1,0,13.452,13.452,13.452,0,0,1,13.452,0Z" stroke="none"/>
      <path d="M 13.45178508758545 2.499994277954102 C 10.52645492553711 2.499994277954102 7.776214599609375 3.639175415039062 5.707695007324219 5.707695007324219 C 3.639175415039062 7.776214599609375 2.499994277954102 10.52645492553711 2.499994277954102 13.45178508758545 C 2.499994277954102 16.37711524963379 3.639175415039062 19.12734603881836 5.707695007324219 21.19586563110352 C 7.776214599609375 23.26438522338867 10.52645492553711 24.403564453125 13.45178508758545 24.403564453125 C 16.37711524963379 24.403564453125 19.12734603881836 23.26438522338867 21.19586563110352 21.19586563110352 C 23.26438522338867 19.12734603881836 24.403564453125 16.37711524963379 24.403564453125 13.45178508758545 C 24.403564453125 10.52645492553711 23.26438522338867 7.776214599609375 21.19586563110352 5.707695007324219 C 19.12734603881836 3.639175415039062 16.37711524963379 2.499994277954102 13.45178508758545 2.499994277954102 M 13.45178508758545 -5.7220458984375e-06 C 20.88100433349609 -5.7220458984375e-06 26.903564453125 6.022565841674805 26.903564453125 13.45178508758545 C 26.903564453125 20.88100433349609 20.88100433349609 26.903564453125 13.45178508758545 26.903564453125 C 6.022565841674805 26.903564453125 -5.7220458984375e-06 20.88100433349609 -5.7220458984375e-06 13.45178508758545 C -5.7220458984375e-06 6.022565841674805 6.022565841674805 -5.7220458984375e-06 13.45178508758545 -5.7220458984375e-06 Z" stroke="none" fill="#373933"/>
    </g>
  </g>
</svg>
