<svg xmlns="http://www.w3.org/2000/svg" width="57.64" height="57.641" viewBox="0 0 57.64 57.641">
  <g id="noun-gym-113171" transform="translate(-213.922 -143.92)">
    <path id="Trazado_8991" data-name="Trazado 8991" d="M438.691,373.676a1.077,1.077,0,0,1-.831-.356l-4.626-4.625a1.174,1.174,0,0,1,1.66-1.66l3.8,3.8,2.134-2.134-3.8-3.8a1.174,1.174,0,1,1,1.66-1.66l4.625,4.626a1.147,1.147,0,0,1,0,1.66l-3.8,3.8a1.277,1.277,0,0,1-.829.355Z" transform="translate(-172.584 -172.59)" fill="#bc2026"/>
    <path id="Trazado_8992" data-name="Trazado 8992" d="M306.605,255.713a1.077,1.077,0,0,1-.831-.356l-22.06-22.06a1.174,1.174,0,0,1,1.66-1.66l22.06,22.06a1.147,1.147,0,0,1,0,1.66A1.077,1.077,0,0,1,306.605,255.713Z" transform="translate(-54.731 -68.86)" fill="#bc2026"/>
    <path id="Trazado_8993" data-name="Trazado 8993" d="M324.526,237.793a1.077,1.077,0,0,1-.831-.356l-22.06-22.06a1.174,1.174,0,0,1,1.66-1.66l22.06,22.06a1.147,1.147,0,0,1,0,1.66,1.077,1.077,0,0,1-.831.356Z" transform="translate(-68.856 -54.735)" fill="#bc2026"/>
    <path id="Trazado_8994" data-name="Trazado 8994" d="M223.734,158.713a1.077,1.077,0,0,1-.831-.356l-4.151-4.152a1.148,1.148,0,0,1,0-1.661l3.8-3.8a1.147,1.147,0,0,1,1.66,0l4.151,4.152a1.174,1.174,0,0,1-1.66,1.66l-3.321-3.321-2.134,2.134,3.321,3.321a1.147,1.147,0,0,1,0,1.66,1.283,1.283,0,0,1-.831.357Z" transform="translate(-3.526 -3.526)" fill="#bc2026"/>
    <path id="Trazado_8995" data-name="Trazado 8995" d="M219.971,165.031a1.077,1.077,0,0,1-.831-.356l-4.862-4.863a1.147,1.147,0,0,1,0-1.66l13.876-13.876a1.148,1.148,0,0,1,1.661,0l4.863,4.863a1.147,1.147,0,0,1,0,1.66L220.8,164.675a1.281,1.281,0,0,1-.83.356Zm-3.2-6.049,3.083,3.083,12.216-12.216-3.083-3.083Z" transform="translate(0 0)" fill="#bc2026"/>
    <path id="Trazado_8996" data-name="Trazado 8996" d="M228.367,179.919a1.077,1.077,0,0,1-.831-.356l-4.863-4.863a1.148,1.148,0,0,1,0-1.661l19.807-19.807a1.147,1.147,0,0,1,1.66,0L249,158.1a1.147,1.147,0,0,1,0,1.66L229.2,179.563a1.077,1.077,0,0,1-.831.356Zm-3.083-6.048,3.083,3.083,18.146-18.146-3.083-3.083Z" transform="translate(-6.617 -7.06)" fill="#bc2026"/>
    <path id="Trazado_8997" data-name="Trazado 8997" d="M392.447,337.511a1.077,1.077,0,0,1-.831-.356l-4.863-4.863a1.147,1.147,0,0,1,0-1.66l13.876-13.876a1.148,1.148,0,0,1,1.661,0l4.863,4.863a1.147,1.147,0,0,1,0,1.66l-13.877,13.876a1.279,1.279,0,0,1-.83.356Zm-3.2-6.048,3.083,3.083,12.216-12.216-3.083-3.083Z" transform="translate(-135.947 -135.951)" fill="#bc2026"/>
    <path id="Trazado_8998" data-name="Trazado 8998" d="M355.487,306.481a1.077,1.077,0,0,1-.831-.356l-4.863-4.863a1.147,1.147,0,0,1,0-1.66L369.72,279.8a1.148,1.148,0,0,1,1.661,0l4.863,4.863a1.147,1.147,0,0,1,0,1.66l-19.926,19.807A1.08,1.08,0,0,1,355.487,306.481Zm-3.083-5.93,3.083,3.083,18.146-18.146L370.55,282.4Z" transform="translate(-106.815 -106.818)" fill="#bc2026"/>
  </g>
</svg>
