<svg xmlns="http://www.w3.org/2000/svg" width="34.802" height="24.99" viewBox="0 0 34.802 24.99">
  <g id="Icon_feather-youtube" data-name="Icon feather-youtube" transform="translate(-0.599 -5.1)">
    <path id="Trazado_8829" data-name="Trazado 8829" d="M33.81,9.63a4.17,4.17,0,0,0-2.91-3C28.32,6,18,6,18,6S7.68,6,5.1,6.69a4.17,4.17,0,0,0-2.91,3,43.5,43.5,0,0,0-.69,7.935,43.5,43.5,0,0,0,.69,7.995A4.17,4.17,0,0,0,5.1,28.5c2.58.69,12.9.69,12.9.69s10.32,0,12.9-.69a4.17,4.17,0,0,0,2.91-3,43.5,43.5,0,0,0,.69-7.875,43.5,43.5,0,0,0-.69-8Z" fill="none" stroke="#fff" stroke-linecap="round" stroke-linejoin="round" stroke-width="1.8"/>
    <path id="Trazado_8830" data-name="Trazado 8830" d="M14.625,22.53l8.625-4.905-8.625-4.9Z" fill="none" stroke="#fff" stroke-linecap="round" stroke-linejoin="round" stroke-width="1.8"/>
  </g>
</svg>